<?xml version="1.0" encoding="UTF-8" standalone="no"?>
<svg
   xmlns:dc="http://purl.org/dc/elements/1.1/"
   xmlns:cc="http://creativecommons.org/ns#"
   xmlns:rdf="http://www.w3.org/1999/02/22-rdf-syntax-ns#"
   xmlns:svg="http://www.w3.org/2000/svg"
   xmlns="http://www.w3.org/2000/svg"
   xmlns:sodipodi="http://sodipodi.sourceforge.net/DTD/sodipodi-0.dtd"
   xmlns:inkscape="http://www.inkscape.org/namespaces/inkscape"
   width="793.700787402"
   height="1122.51968504"
   version="1.1"
   id="svg26"
   sodipodi:docname="bend_top-v6.svg"
   inkscape:version="0.92.2 5c3e80d, 2017-08-06">
  <sodipodi:namedview
     pagecolor="#ffffff"
     bordercolor="#666666"
     borderopacity="1"
     objecttolerance="10"
     gridtolerance="10"
     guidetolerance="10"
     inkscape:pageopacity="0"
     inkscape:pageshadow="2"
     inkscape:window-width="1366"
     inkscape:window-height="667"
     id="namedview28"
     showgrid="false"
     inkscape:zoom="1.1893044"
     inkscape:cx="441.68795"
     inkscape:cy="932.02662"
     inkscape:window-x="0"
     inkscape:window-y="1"
     inkscape:window-maximized="1"
     inkscape:current-layer="g24"
     inkscape:measure-start="112.671,965.27"
     inkscape:measure-end="536.881,929.447" />
  <metadata
     id="metadata30">
    <rdf:RDF>
      <cc:Work
         rdf:about="">
        <dc:format>image/svg+xml</dc:format>
        <dc:type
           rdf:resource="http://purl.org/dc/dcmitype/StillImage" />
        <dc:title />
      </cc:Work>
    </rdf:RDF>
  </metadata>
  <desc
     id="desc2">/Users/andersseverinsen/Desktop/bend_top-v6.dxf - scale = 1.000000, origin = (0.000000, 0.000000), method = manual</desc>
  <defs
     id="defs16">
    <marker
       style="overflow:visible"
       refY="0.0"
       refX="0.0"
       orient="auto"
       id="DistanceX">
      <path
         id="path4"
         style="stroke:#000000; stroke-width:0.5"
         d="M 3,-3 L -3,3 M 0,-5 L  0,5" />
    </marker>
    <pattern
       y="0"
       x="0"
       width="8"
       patternUnits="userSpaceOnUse"
       id="Hatch"
       height="8">
      <path
         id="path7"
         stroke-width="0.25"
         stroke="#000000"
         linecap="square"
         d="M8 4 l-4,4" />
      <path
         id="path9"
         stroke-width="0.25"
         stroke="#000000"
         linecap="square"
         d="M6 2 l-4,4" />
      <path
         id="path11"
         stroke-width="0.25"
         stroke="#000000"
         linecap="square"
         d="M4 0 l-4,4" />
    </pattern>
    <symbol
       id="*MODEL_SPACE" />
    <symbol
       id="*PAPER_SPACE" />
  </defs>
  <g
     id="g24"
     inkscape:label="0"
     inkscape:groupmode="layer">
    <path
       inkscape:connector-curvature="0"
       id="path18"
       style="fill:none;stroke:#000000"
       d="M 785.38786,298.89937 H 747.59255 V 283.78126 H 44.650854 v 15.11811 H 6.8555537 V 193.0726 H 785.38786 Z" />
    <path
       id="path882"
       style="stroke:#ff0000;stroke-width:0.37795276;fill:none;stroke-opacity:1"
       d="M 255.35956, 193.0726 L 255.35956, 232.757636661 M 255.35956, 244.096219339 L 255.35956, 283.781256 M 266.6204352, 193.0726 L 266.6204352, 232.757636661 M 266.6204352, 244.096219339 L 266.6204352, 283.781256 M 277.8813104, 193.0726 L 277.8813104, 232.757636661 M 277.8813104, 244.096219339 L 277.8813104, 283.781256 M 289.1421856, 193.0726 L 289.1421856, 232.757636661 M 289.1421856, 244.096219339 L 289.1421856, 283.781256 M 300.4030608, 193.0726 L 300.4030608, 232.757636661 M 300.4030608, 244.096219339 L 300.4030608, 283.781256 M 311.663936, 193.0726 L 311.663936, 232.757636661 M 311.663936, 244.096219339 L 311.663936, 283.781256 M 322.9248112, 193.0726 L 322.9248112, 232.757636661 M 322.9248112, 244.096219339 L 322.9248112, 283.781256 M 334.1856864, 193.0726 L 334.1856864, 232.757636661 M 334.1856864, 244.096219339 L 334.1856864, 283.781256 M 345.4465616, 193.0726 L 345.4465616, 232.757636661 M 345.4465616, 244.096219339 L 345.4465616, 283.781256 M 356.7074368, 193.0726 L 356.7074368, 232.757636661 M 356.7074368, 244.096219339 L 356.7074368, 283.781256 M 367.968312, 193.0726 L 367.968312, 232.757636661 M 367.968312, 244.096219339 L 367.968312, 283.781256 M 379.2291872, 193.0726 L 379.2291872, 232.757636661 M 379.2291872, 244.096219339 L 379.2291872, 283.781256 M 390.4900624, 193.0726 L 390.4900624, 232.757636661 M 390.4900624, 244.096219339 L 390.4900624, 283.781256 M 401.7509376, 193.0726 L 401.7509376, 232.757636661 M 401.7509376, 244.096219339 L 401.7509376, 283.781256 M 413.0118128, 193.0726 L 413.0118128, 232.757636661 M 413.0118128, 244.096219339 L 413.0118128, 283.781256 M 424.272688, 193.0726 L 424.272688, 232.757636661 M 424.272688, 244.096219339 L 424.272688, 283.781256 M 435.5335632, 193.0726 L 435.5335632, 232.757636661 M 435.5335632, 244.096219339 L 435.5335632, 283.781256 M 446.7944384, 193.0726 L 446.7944384, 232.757636661 M 446.7944384, 244.096219339 L 446.7944384, 283.781256 M 458.0553136, 193.0726 L 458.0553136, 232.757636661 M 458.0553136, 244.096219339 L 458.0553136, 283.781256 M 469.3161888, 193.0726 L 469.3161888, 232.757636661 M 469.3161888, 244.096219339 L 469.3161888, 283.781256 M 480.577064, 193.0726 L 480.577064, 232.757636661 M 480.577064, 244.096219339 L 480.577064, 283.781256 M 491.8379392, 193.0726 L 491.8379392, 232.757636661 M 491.8379392, 244.096219339 L 491.8379392, 283.781256 M 503.0988144, 193.0726 L 503.0988144, 232.757636661 M 503.0988144, 244.096219339 L 503.0988144, 283.781256 M 514.3596896, 193.0726 L 514.3596896, 232.757636661 M 514.3596896, 244.096219339 L 514.3596896, 283.781256 M 525.6205648, 193.0726 L 525.6205648, 232.757636661 M 525.6205648, 244.096219339 L 525.6205648, 283.781256 M 536.88144, 193.0726 L 536.88144, 232.757636661 M 536.88144, 244.096219339 L 536.88144, 283.781256 M 260.9899976, 204.411182677 L 260.9899976, 272.442673323 M 272.2508728, 204.411182677 L 272.2508728, 272.442673323 M 283.511748, 204.411182677 L 283.511748, 272.442673323 M 294.7726232, 204.411182677 L 294.7726232, 272.442673323 M 306.0334984, 204.411182677 L 306.0334984, 272.442673323 M 317.2943736, 204.411182677 L 317.2943736, 272.442673323 M 328.5552488, 204.411182677 L 328.5552488, 272.442673323 M 339.816124, 204.411182677 L 339.816124, 272.442673323 M 351.0769992, 204.411182677 L 351.0769992, 272.442673323 M 362.3378744, 204.411182677 L 362.3378744, 272.442673323 M 373.5987496, 204.411182677 L 373.5987496, 272.442673323 M 384.8596248, 204.411182677 L 384.8596248, 272.442673323 M 396.1205, 204.411182677 L 396.1205, 272.442673323 M 407.3813752, 204.411182677 L 407.3813752, 272.442673323 M 418.6422504, 204.411182677 L 418.6422504, 272.442673323 M 429.9031256, 204.411182677 L 429.9031256, 272.442673323 M 441.1640008, 204.411182677 L 441.1640008, 272.442673323 M 452.424876, 204.411182677 L 452.424876, 272.442673323 M 463.6857512, 204.411182677 L 463.6857512, 272.442673323 M 474.9466264, 204.411182677 L 474.9466264, 272.442673323 M 486.2075016, 204.411182677 L 486.2075016, 272.442673323 M 497.4683768, 204.411182677 L 497.4683768, 272.442673323 M 508.729252, 204.411182677 L 508.729252, 272.442673323 M 519.9901272, 204.411182677 L 519.9901272, 272.442673323 M 531.2510024, 204.411182677 L 531.2510024, 272.442673323 ">
      <desc
         id="desc880">Hinge cut parameters: actual(requested)
cut length: 18.00 mm (12.00 mm)
gap length: 3.00 mm (3.00 mm)
separation distance: 1.49 mm (1.50 mm)</desc>
    </path>
  </g>
</svg>
