<?xml version="1.0" encoding="UTF-8" standalone="no"?>
<svg
   xmlns:dc="http://purl.org/dc/elements/1.1/"
   xmlns:cc="http://creativecommons.org/ns#"
   xmlns:rdf="http://www.w3.org/1999/02/22-rdf-syntax-ns#"
   xmlns:svg="http://www.w3.org/2000/svg"
   xmlns="http://www.w3.org/2000/svg"
   xmlns:sodipodi="http://sodipodi.sourceforge.net/DTD/sodipodi-0.dtd"
   xmlns:inkscape="http://www.inkscape.org/namespaces/inkscape"
   width="793.700787402"
   height="1122.51968504"
   version="1.1"
   id="svg32"
   sodipodi:docname="Bend-v8.svg"
   inkscape:version="0.92.2 5c3e80d, 2017-08-06">
  <sodipodi:namedview
     pagecolor="#ffffff"
     bordercolor="#666666"
     borderopacity="1"
     objecttolerance="10"
     gridtolerance="10"
     guidetolerance="10"
     inkscape:pageopacity="0"
     inkscape:pageshadow="2"
     inkscape:window-width="1366"
     inkscape:window-height="670"
     id="namedview34"
     showgrid="false"
     inkscape:zoom="2.3786089"
     inkscape:cx="517.5628"
     inkscape:cy="901.04509"
     inkscape:window-x="0"
     inkscape:window-y="1"
     inkscape:window-maximized="1"
     inkscape:current-layer="g30" />
  <metadata
     id="metadata36">
    <rdf:RDF>
      <cc:Work
         rdf:about="">
        <dc:format>image/svg+xml</dc:format>
        <dc:type
           rdf:resource="http://purl.org/dc/dcmitype/StillImage" />
        <dc:title></dc:title>
      </cc:Work>
    </rdf:RDF>
  </metadata>
  <desc
     id="desc2">/Users/andersseverinsen/Documents/Laser Cutting/LED-Strip_Thermostat/V8 and 3D/Bend-v8.dxf - scale = 1.000000, origin = (0.000000, 0.000000), method = manual</desc>
  <defs
     id="defs16">
    <marker
       style="overflow:visible"
       refY="0.0"
       refX="0.0"
       orient="auto"
       id="DistanceX">
      <path
         id="path4"
         style="stroke:#000000; stroke-width:0.5"
         d="M 3,-3 L -3,3 M 0,-5 L  0,5" />
    </marker>
    <pattern
       y="0"
       x="0"
       width="8"
       patternUnits="userSpaceOnUse"
       id="Hatch"
       height="8">
      <path
         id="path7"
         stroke-width="0.25"
         stroke="#000000"
         linecap="square"
         d="M8 4 l-4,4" />
      <path
         id="path9"
         stroke-width="0.25"
         stroke="#000000"
         linecap="square"
         d="M6 2 l-4,4" />
      <path
         id="path11"
         stroke-width="0.25"
         stroke="#000000"
         linecap="square"
         d="M4 0 l-4,4" />
    </pattern>
    <symbol
       id="*MODEL_SPACE" />
    <symbol
       id="*PAPER_SPACE" />
  </defs>
  <g
     id="g30"
     inkscape:label="0"
     inkscape:groupmode="layer">
    <path
       inkscape:connector-curvature="0"
       id="path18"
       style="fill:none;stroke:#000000"
       d="m 800.89748,217.22438 a 10.204725,10.204725 0 1 0 0,20.40945 10.204725,10.204725 0 1 0 0,-20.40945 z" />
    <path
       inkscape:connector-curvature="0"
       id="path20"
       style="fill:none;stroke:#000000"
       d="m 444.62553,217.22438 a 10.204725,10.204725 0 1 0 0,20.40945 10.204725,10.204725 0 1 0 0,-20.40945 z" />
    <path
       inkscape:connector-curvature="0"
       id="path22"
       style="fill:none;stroke:#000000"
       d="m 521.78518,221.00391 h -24.56693 v 18.51968 h 24.56693 z" />
    <path
       inkscape:connector-curvature="0"
       id="path24"
       style="fill:none;stroke:#000000"
       d="m 747.65131,217.22438 a 10.204725,10.204725 0 1 0 0,20.40945 10.204725,10.204725 0 1 0 0,-20.40945 z" />
    <path
       inkscape:connector-curvature="0"
       id="path26"
       style="fill:none;stroke:#000000"
       d="m 585.64736,217.41336 v 27.02362 h 38.36221 v -27.02362 z" />
    <path
       inkscape:connector-curvature="0"
       id="path28"
       style="fill:none;stroke:#000000"
       d="m 1081.045,198.32674 v 105.82677 h -22.6318 V 289.0354 H 147.83391 v 15.11811 H 128.61192 V 198.32674 Z" />
    <path
       id="path872"
       style="fill:none;stroke:#fe0000;stroke-width:0.37795275;stroke-opacity:1"
       d="m 139.96462,198.34583 v 39.35758 m 0,11.33858 v 55.02097 m 11.33362,-105.71713 v 39.35758 m 0,11.33858 v 39.35757 m 11.33361,-90.05373 v 39.35758 m 0,11.33858 v 39.35757 m 11.33362,-90.05373 v 39.35758 m 0,11.33858 v 39.35757 m 11.33361,-90.05373 v 39.35758 m 0,11.33858 v 39.35757 m 11.33361,-90.05373 v 39.35758 m 0,11.33858 v 39.35757 m 11.33362,-90.05373 v 39.35758 m 0,11.33858 v 39.35757 m 11.33361,-90.05373 v 39.35758 m 0,11.33858 v 39.35757 m 11.33361,-90.05373 v 39.35758 m 0,11.33858 v 39.35757 m 11.33362,-90.05373 v 39.35758 m 0,11.33858 v 39.35757 m 11.33361,-90.05373 v 39.35758 m 0,11.33858 v 39.35757 m 11.33362,-90.05373 v 39.35758 m 0,11.33858 v 39.35757 m 11.33361,-90.05373 v 39.35758 m 0,11.33858 v 39.35757 m 11.33361,-90.05373 v 39.35758 m 0,11.33858 v 39.35757 m 11.33362,-90.05373 v 39.35758 m 0,11.33858 v 39.35757 m 11.33361,-90.05373 v 39.35758 m 0,11.33858 v 39.35757 m 11.33361,-90.05373 v 39.35758 m 0,11.33858 v 39.35757 m 11.33362,-90.05373 v 39.35758 m 0,11.33858 v 39.35757 m 11.33361,-90.05373 v 39.35758 m 0,11.33858 v 39.35757 m 11.33362,-90.05373 v 39.35758 m 0,11.33858 v 39.35757 m 11.33361,-90.05373 v 39.35758 m 0,11.33858 v 39.35757 m 11.33361,-90.05373 v 39.35758 m 0,11.33858 v 39.35757 m 11.33362,-90.05373 v 39.35758 m 0,11.33858 v 39.35757 m 11.33361,-90.05373 v 39.35758 m 0,11.33858 v 39.35757 m 11.33362,-90.05373 v 39.35758 m 0,11.33858 v 39.35757 m 11.33361,-90.05373 v 39.35758 m 0,11.33858 v 39.35757 m 11.33361,-90.05373 v 16.67902 m 0,34.01714 v 39.35757 m 11.33362,-90.05373 v 12.55178 m 0,38.14438 v 39.35757 m 11.33361,-90.05373 v 39.35758 m 0,11.33858 v 39.35757 m 11.33361,-90.05373 v 39.35758 m 0,11.33858 v 39.35757 m 11.33362,-90.05373 v 39.35758 m 0,11.33858 v 39.35757 m 11.33361,-90.05373 v 39.35758 m 0,11.33858 v 39.35757 m 11.33362,-90.05373 v 16.67902 m 0,34.01714 v 39.35757 m 11.33361,-90.05373 v 16.67902 m 0,34.01714 v 39.35757 m 11.33361,-90.05373 v 39.35758 m 0,11.33858 v 39.35757 m 11.33362,-90.05373 v 39.35758 m 0,11.33858 v 39.35757 m 11.33361,-90.05373 v 39.35758 m 0,11.33858 v 39.35757 m 11.33361,-90.05373 v 39.35758 m 0,11.33858 v 39.35757 m 11.33362,-90.05373 v 39.35758 m 0,11.33858 v 39.35757 m 11.33361,-90.05373 v 39.35758 m 0,11.33858 v 39.35757 m 11.33362,-90.05373 v 13.30768 m 0,37.38848 v 39.35757 m 11.33361,-90.05373 v 13.30768 m 0,37.38848 v 39.35757 m 11.33361,-90.05373 v 13.30768 m 0,37.38848 v 39.35757 m 11.33362,-90.05373 v 39.35758 m 0,11.33858 v 39.35757 m 11.33361,-90.05373 v 39.35758 m 0,11.33858 v 39.35757 m 11.33362,-90.05373 v 39.35758 m 0,11.33858 v 39.35757 m 11.33361,-90.05373 v 39.35758 m 0,11.33858 v 39.35757 m 11.33361,-90.05373 v 39.35758 m 0,11.33858 v 39.35757 m 11.33362,-90.05373 v 39.35758 m 0,11.33858 v 39.35757 m 11.33361,-90.05373 v 39.35758 m 0,11.33858 v 39.35757 m 11.33361,-90.05373 v 39.35758 m 0,11.33858 v 39.35757 m 11.33362,-90.05373 v 39.35758 m 0,11.33858 v 39.35757 m 11.33361,-90.05373 v 39.35758 m 0,11.33858 v 39.35757 m 11.33362,-90.05373 v 13.30768 m 0,37.38848 v 39.35757 m 11.33361,-90.05373 v 13.30768 m 0,37.38848 v 39.35757 m 11.33361,-90.05373 v 39.35758 m 0,11.33858 v 39.35757 M 774.647,198.34583 v 39.35758 m 0,11.33858 v 39.35757 m 11.33361,-90.05373 v 39.35758 m 0,11.33858 v 39.35757 m 11.33361,-90.05373 v 13.30768 m 0,37.38848 v 39.35757 m 11.33362,-90.05373 v 15.95335 m 0,34.74281 v 39.35757 m 11.33361,-90.05373 v 39.35758 m 0,11.33858 v 39.35757 m 11.33362,-90.05373 v 39.35758 m 0,11.33858 v 39.35757 m 11.33361,-90.05373 v 39.35758 m 0,11.33858 v 39.35757 m 11.33361,-90.05373 v 39.35758 m 0,11.33858 v 39.35757 m 11.33362,-90.05373 v 39.35758 m 0,11.33858 v 39.35757 m 11.33361,-90.05373 v 39.35758 m 0,11.33858 v 39.35757 m 11.33362,-90.05373 v 39.35758 m 0,11.33858 v 39.35757 m 11.33361,-90.05373 v 39.35758 m 0,11.33858 v 39.35757 m 11.33361,-90.05373 v 39.35758 m 0,11.33858 v 39.35757 m 11.33362,-90.05373 v 39.35758 m 0,11.33858 v 39.35757 m 11.33361,-90.05373 v 39.35758 m 0,11.33858 v 39.35757 m 11.33361,-90.05373 v 39.35758 m 0,11.33858 v 39.35757 m 11.33362,-90.05373 v 39.35758 m 0,11.33858 v 39.35757 m 11.33361,-90.05373 v 39.35758 m 0,11.33858 v 39.35757 m 11.33362,-90.05373 v 39.35758 m 0,11.33858 v 39.35757 m 11.33361,-90.05373 v 39.35758 m 0,11.33858 v 39.35757 m 11.33364,-90.05373 v 39.35758 m 0,11.33858 v 39.35757 m 11.3336,-90.05373 v 39.35758 m 0,11.33858 v 39.35757 m 11.3336,-90.05373 v 39.35758 m 0,11.33858 v 39.35757 m 11.3336,-90.05373 v 39.35758 m 0,11.33858 v 39.35757 m 11.3336,-90.05373 v 39.35758 m 0,11.33858 v 39.35757 m 11.3336,-90.05373 v 39.35758 m 0,11.33858 v 39.35757 m 11.3337,-90.05373 v 39.35758 m 0,11.33858 v 55.02097 M 134.29782,209.68441 v 82.49572 m 11.33361,-82.49572 v 70.0006 m 11.33361,-70.0006 v 67.37657 m 11.33362,-67.37657 v 67.37657 m 11.33361,-67.37657 v 67.37657 m 11.33362,-67.37657 v 67.37657 m 11.33361,-67.37657 v 67.37657 m 11.33361,-67.37657 v 67.37657 m 11.33362,-67.37657 v 67.37657 m 11.33361,-67.37657 v 67.37657 m 11.33361,-67.37657 v 67.37657 m 11.33362,-67.37657 v 67.37657 m 11.33361,-67.37657 v 67.37657 m 11.33362,-67.37657 v 67.37657 m 11.33361,-67.37657 v 67.37657 m 11.33361,-67.37657 v 67.37657 m 11.33362,-67.37657 v 67.37657 m 11.33361,-67.37657 v 67.37657 m 11.33362,-67.37657 v 67.37657 m 11.33361,-67.37657 v 67.37657 m 11.33361,-67.37657 v 67.37657 m 11.33362,-67.37657 v 67.37657 m 11.33361,-67.37657 v 67.37657 m 11.33361,-67.37657 v 67.37657 m 11.33362,-67.37657 v 67.37657 m 11.33361,-67.37657 v 67.37657 m 11.33362,-67.37657 v 67.37657 m 11.33361,-35.17125 v 35.17125 M 451.639,241.88973 v 35.17125 m 11.33362,-67.37657 v 67.37657 m 11.33361,-67.37657 v 67.37657 m 11.33361,-67.37657 v 67.37657 m 11.33362,-31.39172 v 31.39172 m 11.33361,-31.39172 v 31.39172 m 11.33362,-31.39172 v 31.39172 m 11.33361,-67.37657 v 67.37657 m 11.33361,-67.37657 v 67.37657 m 11.33362,-67.37657 v 67.37657 m 11.33361,-67.37657 v 67.37657 m 11.33362,-67.37657 v 67.37657 m 11.33361,-25.72243 v 25.72243 m 11.33361,-25.72243 v 25.72243 m 11.33362,-25.72243 v 25.72243 m 11.33361,-25.72243 v 25.72243 m 11.33361,-67.37657 v 67.37657 m 11.33362,-67.37657 v 67.37657 m 11.33361,-67.37657 v 67.37657 m 11.33362,-67.37657 v 67.37657 m 11.33361,-67.37657 v 67.37657 m 11.33361,-67.37657 v 67.37657 m 11.33362,-67.37657 v 67.37657 m 11.33361,-67.37657 v 67.37657 m 11.33361,-67.37657 v 67.37657 m 11.33362,-67.37657 v 67.37657 m 11.33361,-35.17125 v 35.17125 m 11.33362,-37.43896 v 37.43896 m 11.33361,-67.37657 v 67.37657 m 11.33361,-67.37657 v 67.37657 m 11.33362,-37.06101 v 37.06101 m 11.33361,-35.17125 v 35.17125 m 11.33362,-67.37657 v 67.37657 m 11.33361,-67.37657 v 67.37657 m 11.33361,-67.37657 v 67.37657 m 11.33362,-67.37657 v 67.37657 m 11.33361,-67.37657 v 67.37657 m 11.33361,-67.37657 v 67.37657 m 11.33362,-67.37657 v 67.37657 m 11.33361,-67.37657 v 67.37657 m 11.33362,-67.37657 v 67.37657 m 11.33361,-67.37657 v 67.37657 m 11.33361,-67.37657 v 67.37657 m 11.33362,-67.37657 v 67.37657 m 11.33361,-67.37657 v 67.37657 m 11.33361,-67.37657 v 67.37657 m 11.33362,-67.37657 v 67.37657 m 11.33361,-67.37657 v 67.37657 m 11.33362,-67.37657 v 67.37657 m 11.33363,-67.37657 v 67.37657 m 11.3336,-67.37657 v 67.37657 m 11.3336,-67.37657 v 67.37657 m 11.3336,-67.37657 v 67.37657 m 11.3336,-67.37657 v 67.37657 m 11.3336,-67.37657 v 70.0006 m 11.3337,-70.0006 v 82.49572"
       inkscape:connector-curvature="0"
       sodipodi:nodetypes="cccccccccccccccccccccccccccccccccccccccccccccccccccccccccccccccccccccccccccccccccccccccccccccccccccccccccccccccccccccccccccccccccccccccccccccccccccccccccccccccccccccccccccccccccccccccccccccccccccccccccccccccccccccccccccccccccccccccccccccccccccccccccccccccccccccccccccccccccccccccccccccccccccccccccccccccccccccccccccccccccccccccccccccccccccccccccccccccccccccccccccccccccccccccccccccccccccccccccccccccccccccccccccccccccccccccccccccccccccccccccccccccccccccccccccccccccccccccccccccccccccccccccccccccccccc">
      <desc
         id="desc870">Hinge cut parameters: actual(requested)
cut length: 17.83 mm (12.00 mm)
gap length: 3.00 mm (3.00 mm)
separation distance: 1.50 mm (1.50 mm)</desc>
    </path>
    <path
       sodipodi:nodetypes="cccccccccccccccccccccccccccccccccccccccccccccccccccccccccccccccccccccccccccccccccccccccccccccccccccccccccccccccccccccccccccccccccccccccccccccccccccccccccccccccccccccccccccccccccccccccccccccccccccccccccccccccccccccccccccccccccccccccccccccccccccccccccccccccccccccccccccccccccccccccccccccccccccccccccccccccccccccccccccccccccccccccccccccccccccccccccccccccccccccccccccccccccccccccccccccccccccccccccccccccccccccccccccccccccccccccccccccccccccccccccccccccccccccccccccccccccccccccccccccccccccccccccccccccccccc"
       inkscape:connector-curvature="0"
       d="m 139.96462,198.34583 v 39.35758 m 0,11.33858 v 55.02097 m 11.33362,-105.71713 v 39.35758 m 0,11.33858 v 39.35757 m 11.33361,-90.05373 v 39.35758 m 0,11.33858 v 39.35757 m 11.33362,-90.05373 v 39.35758 m 0,11.33858 v 39.35757 m 11.33361,-90.05373 v 39.35758 m 0,11.33858 v 39.35757 m 11.33361,-90.05373 v 39.35758 m 0,11.33858 v 39.35757 m 11.33362,-90.05373 v 39.35758 m 0,11.33858 v 39.35757 m 11.33361,-90.05373 v 39.35758 m 0,11.33858 v 39.35757 m 11.33361,-90.05373 v 39.35758 m 0,11.33858 v 39.35757 m 11.33362,-90.05373 v 39.35758 m 0,11.33858 v 39.35757 m 11.33361,-90.05373 v 39.35758 m 0,11.33858 v 39.35757 m 11.33362,-90.05373 v 39.35758 m 0,11.33858 v 39.35757 m 11.33361,-90.05373 v 39.35758 m 0,11.33858 v 39.35757 m 11.33361,-90.05373 v 39.35758 m 0,11.33858 v 39.35757 m 11.33362,-90.05373 v 39.35758 m 0,11.33858 v 39.35757 m 11.33361,-90.05373 v 39.35758 m 0,11.33858 v 39.35757 m 11.33361,-90.05373 v 39.35758 m 0,11.33858 v 39.35757 m 11.33362,-90.05373 v 39.35758 m 0,11.33858 v 39.35757 m 11.33361,-90.05373 v 39.35758 m 0,11.33858 v 39.35757 m 11.33362,-90.05373 v 39.35758 m 0,11.33858 v 39.35757 m 11.33361,-90.05373 v 39.35758 m 0,11.33858 v 39.35757 m 11.33361,-90.05373 v 39.35758 m 0,11.33858 v 39.35757 m 11.33362,-90.05373 v 39.35758 m 0,11.33858 v 39.35757 m 11.33361,-90.05373 v 39.35758 m 0,11.33858 v 39.35757 m 11.33362,-90.05373 v 39.35758 m 0,11.33858 v 39.35757 m 11.33361,-90.05373 v 39.35758 m 0,11.33858 v 39.35757 m 11.33361,-90.05373 v 16.67902 m 0,34.01714 v 39.35757 m 11.33362,-90.05373 v 12.55178 m 0,38.14438 v 39.35757 m 11.33361,-90.05373 v 39.35758 m 0,11.33858 v 39.35757 m 11.33361,-90.05373 v 39.35758 m 0,11.33858 v 39.35757 m 11.33362,-90.05373 v 39.35758 m 0,11.33858 v 39.35757 m 11.33361,-90.05373 v 39.35758 m 0,11.33858 v 39.35757 m 11.33362,-90.05373 v 16.67902 m 0,34.01714 v 39.35757 m 11.33361,-90.05373 v 16.67902 m 0,34.01714 v 39.35757 m 11.33361,-90.05373 v 39.35758 m 0,11.33858 v 39.35757 m 11.33362,-90.05373 v 39.35758 m 0,11.33858 v 39.35757 m 11.33361,-90.05373 v 39.35758 m 0,11.33858 v 39.35757 m 11.33361,-90.05373 v 39.35758 m 0,11.33858 v 39.35757 m 11.33362,-90.05373 v 39.35758 m 0,11.33858 v 39.35757 m 11.33361,-90.05373 v 39.35758 m 0,11.33858 v 39.35757 m 11.33362,-90.05373 v 13.30768 m 0,37.38848 v 39.35757 m 11.33361,-90.05373 v 13.30768 m 0,37.38848 v 39.35757 m 11.33361,-90.05373 v 13.30768 m 0,37.38848 v 39.35757 m 11.33362,-90.05373 v 39.35758 m 0,11.33858 v 39.35757 m 11.33361,-90.05373 v 39.35758 m 0,11.33858 v 39.35757 m 11.33362,-90.05373 v 39.35758 m 0,11.33858 v 39.35757 m 11.33361,-90.05373 v 39.35758 m 0,11.33858 v 39.35757 m 11.33361,-90.05373 v 39.35758 m 0,11.33858 v 39.35757 m 11.33362,-90.05373 v 39.35758 m 0,11.33858 v 39.35757 m 11.33361,-90.05373 v 39.35758 m 0,11.33858 v 39.35757 m 11.33361,-90.05373 v 39.35758 m 0,11.33858 v 39.35757 m 11.33362,-90.05373 v 39.35758 m 0,11.33858 v 39.35757 m 11.33361,-90.05373 v 39.35758 m 0,11.33858 v 39.35757 m 11.33362,-90.05373 v 13.30768 m 0,37.38848 v 39.35757 m 11.33361,-90.05373 v 13.30768 m 0,37.38848 v 39.35757 m 11.33361,-90.05373 v 39.35758 m 0,11.33858 v 39.35757 M 774.647,198.34583 v 39.35758 m 0,11.33858 v 39.35757 m 11.33361,-90.05373 v 39.35758 m 0,11.33858 v 39.35757 m 11.33361,-90.05373 v 13.30768 m 0,37.38848 v 39.35757 m 11.33362,-90.05373 v 15.95335 m 0,34.74281 v 39.35757 m 11.33361,-90.05373 v 39.35758 m 0,11.33858 v 39.35757 m 11.33362,-90.05373 v 39.35758 m 0,11.33858 v 39.35757 m 11.33361,-90.05373 v 39.35758 m 0,11.33858 v 39.35757 m 11.33361,-90.05373 v 39.35758 m 0,11.33858 v 39.35757 m 11.33362,-90.05373 v 39.35758 m 0,11.33858 v 39.35757 m 11.33361,-90.05373 v 39.35758 m 0,11.33858 v 39.35757 m 11.33362,-90.05373 v 39.35758 m 0,11.33858 v 39.35757 m 11.33361,-90.05373 v 39.35758 m 0,11.33858 v 39.35757 m 11.33361,-90.05373 v 39.35758 m 0,11.33858 v 39.35757 m 11.33362,-90.05373 v 39.35758 m 0,11.33858 v 39.35757 m 11.33361,-90.05373 v 39.35758 m 0,11.33858 v 39.35757 m 11.33361,-90.05373 v 39.35758 m 0,11.33858 v 39.35757 m 11.33362,-90.05373 v 39.35758 m 0,11.33858 v 39.35757 m 11.33361,-90.05373 v 39.35758 m 0,11.33858 v 39.35757 m 11.33362,-90.05373 v 39.35758 m 0,11.33858 v 39.35757 m 11.33361,-90.05373 v 39.35758 m 0,11.33858 v 39.35757 m 11.33364,-90.05373 v 39.35758 m 0,11.33858 v 39.35757 m 11.3336,-90.05373 v 39.35758 m 0,11.33858 v 39.35757 m 11.3336,-90.05373 v 39.35758 m 0,11.33858 v 39.35757 m 11.3336,-90.05373 v 39.35758 m 0,11.33858 v 39.35757 m 11.3336,-90.05373 v 39.35758 m 0,11.33858 v 39.35757 m 11.3336,-90.05373 v 39.35758 m 0,11.33858 v 39.35757 m 11.3337,-90.05373 v 39.35758 m 0,11.33858 v 55.02097 M 134.29782,209.68441 v 82.49572 m 11.33361,-82.49572 v 70.0006 m 11.33361,-70.0006 v 67.37657 m 11.33362,-67.37657 v 67.37657 m 11.33361,-67.37657 v 67.37657 m 11.33362,-67.37657 v 67.37657 m 11.33361,-67.37657 v 67.37657 m 11.33361,-67.37657 v 67.37657 m 11.33362,-67.37657 v 67.37657 m 11.33361,-67.37657 v 67.37657 m 11.33361,-67.37657 v 67.37657 m 11.33362,-67.37657 v 67.37657 m 11.33361,-67.37657 v 67.37657 m 11.33362,-67.37657 v 67.37657 m 11.33361,-67.37657 v 67.37657 m 11.33361,-67.37657 v 67.37657 m 11.33362,-67.37657 v 67.37657 m 11.33361,-67.37657 v 67.37657 m 11.33362,-67.37657 v 67.37657 m 11.33361,-67.37657 v 67.37657 m 11.33361,-67.37657 v 67.37657 m 11.33362,-67.37657 v 67.37657 m 11.33361,-67.37657 v 67.37657 m 11.33361,-67.37657 v 67.37657 m 11.33362,-67.37657 v 67.37657 m 11.33361,-67.37657 v 67.37657 m 11.33362,-67.37657 v 67.37657 m 11.33361,-35.17125 v 35.17125 M 451.639,241.88973 v 35.17125 m 11.33362,-67.37657 v 67.37657 m 11.33361,-67.37657 v 67.37657 m 11.33361,-67.37657 v 67.37657 m 11.33362,-31.39172 v 31.39172 m 11.33361,-31.39172 v 31.39172 m 11.33362,-31.39172 v 31.39172 m 11.33361,-67.37657 v 67.37657 m 11.33361,-67.37657 v 67.37657 m 11.33362,-67.37657 v 67.37657 m 11.33361,-67.37657 v 67.37657 m 11.33362,-67.37657 v 67.37657 m 11.33361,-25.72243 v 25.72243 m 11.33361,-25.72243 v 25.72243 m 11.33362,-25.72243 v 25.72243 m 11.33361,-25.72243 v 25.72243 m 11.33361,-67.37657 v 67.37657 m 11.33362,-67.37657 v 67.37657 m 11.33361,-67.37657 v 67.37657 m 11.33362,-67.37657 v 67.37657 m 11.33361,-67.37657 v 67.37657 m 11.33361,-67.37657 v 67.37657 m 11.33362,-67.37657 v 67.37657 m 11.33361,-67.37657 v 67.37657 m 11.33361,-67.37657 v 67.37657 m 11.33362,-67.37657 v 67.37657 m 11.33361,-35.17125 v 35.17125 m 11.33362,-37.43896 v 37.43896 m 11.33361,-67.37657 v 67.37657 m 11.33361,-67.37657 v 67.37657 m 11.33362,-37.06101 v 37.06101 m 11.33361,-35.17125 v 35.17125 m 11.33362,-67.37657 v 67.37657 m 11.33361,-67.37657 v 67.37657 m 11.33361,-67.37657 v 67.37657 m 11.33362,-67.37657 v 67.37657 m 11.33361,-67.37657 v 67.37657 m 11.33361,-67.37657 v 67.37657 m 11.33362,-67.37657 v 67.37657 m 11.33361,-67.37657 v 67.37657 m 11.33362,-67.37657 v 67.37657 m 11.33361,-67.37657 v 67.37657 m 11.33361,-67.37657 v 67.37657 m 11.33362,-67.37657 v 67.37657 m 11.33361,-67.37657 v 67.37657 m 11.33361,-67.37657 v 67.37657 m 11.33362,-67.37657 v 67.37657 m 11.33361,-67.37657 v 67.37657 m 11.33362,-67.37657 v 67.37657 m 11.33363,-67.37657 v 67.37657 m 11.3336,-67.37657 v 67.37657 m 11.3336,-67.37657 v 67.37657 m 11.3336,-67.37657 v 67.37657 m 11.3336,-67.37657 v 67.37657 m 11.3336,-67.37657 v 70.0006 m 11.3337,-70.0006 v 82.49572"
       style="fill:none;stroke:#fe0000;stroke-width:0.37795275;stroke-opacity:1"
       id="path899">
      <desc
         id="desc897">Hinge cut parameters: actual(requested)
cut length: 17.83 mm (12.00 mm)
gap length: 3.00 mm (3.00 mm)
separation distance: 1.50 mm (1.50 mm)</desc>
    </path>
  </g>
</svg>
