<?xml version="1.0" encoding="UTF-8" standalone="no"?>
<svg
   xmlns:dc="http://purl.org/dc/elements/1.1/"
   xmlns:cc="http://creativecommons.org/ns#"
   xmlns:rdf="http://www.w3.org/1999/02/22-rdf-syntax-ns#"
   xmlns:svg="http://www.w3.org/2000/svg"
   xmlns="http://www.w3.org/2000/svg"
   xmlns:sodipodi="http://sodipodi.sourceforge.net/DTD/sodipodi-0.dtd"
   xmlns:inkscape="http://www.inkscape.org/namespaces/inkscape"
   width="793.700787402"
   height="1122.51968504"
   version="1.1"
   id="svg60"
   sodipodi:docname="bot.svg"
   inkscape:version="0.92.2 5c3e80d, 2017-08-06">
  <metadata
     id="metadata64">
    <rdf:RDF>
      <cc:Work
         rdf:about="">
        <dc:format>image/svg+xml</dc:format>
        <dc:type
           rdf:resource="http://purl.org/dc/dcmitype/StillImage" />
        <dc:title></dc:title>
      </cc:Work>
    </rdf:RDF>
  </metadata>
  <sodipodi:namedview
     pagecolor="#ffffff"
     bordercolor="#666666"
     borderopacity="1"
     objecttolerance="10"
     gridtolerance="10"
     guidetolerance="10"
     inkscape:pageopacity="0"
     inkscape:pageshadow="2"
     inkscape:window-width="1366"
     inkscape:window-height="667"
     id="namedview62"
     showgrid="false"
     inkscape:zoom="1.1893044"
     inkscape:cx="399.87968"
     inkscape:cy="819.07677"
     inkscape:window-x="0"
     inkscape:window-y="1"
     inkscape:window-maximized="1"
     inkscape:current-layer="g58" />
  <desc
     id="desc2">/Users/andersseverinsen/Desktop/bot_t.dxf - scale = 1.000000, origin = (0.000000, 0.000000), method = manual</desc>
  <defs
     id="defs16">
    <marker
       id="DistanceX"
       orient="auto"
       refX="0.0"
       refY="0.0"
       style="overflow:visible">
      <path
         d="M 3,-3 L -3,3 M 0,-5 L  0,5"
         style="stroke:#000000; stroke-width:0.5"
         id="path4" />
    </marker>
    <pattern
       height="8"
       id="Hatch"
       patternUnits="userSpaceOnUse"
       width="8"
       x="0"
       y="0">
      <path
         d="M8 4 l-4,4"
         linecap="square"
         stroke="#000000"
         stroke-width="0.25"
         id="path7" />
      <path
         d="M6 2 l-4,4"
         linecap="square"
         stroke="#000000"
         stroke-width="0.25"
         id="path9" />
      <path
         d="M4 0 l-4,4"
         linecap="square"
         stroke="#000000"
         stroke-width="0.25"
         id="path11" />
    </pattern>
    <symbol
       id="*MODEL_SPACE" />
    <symbol
       id="*PAPER_SPACE" />
    <marker
       style="overflow:visible"
       refY="0.0"
       refX="0.0"
       orient="auto"
       id="DistanceX-7">
      <path
         id="path917"
         style="stroke:#000000; stroke-width:0.5"
         d="M 3,-3 L -3,3 M 0,-5 L  0,5" />
    </marker>
    <pattern
       y="0"
       x="0"
       width="8"
       patternUnits="userSpaceOnUse"
       id="Hatch-9"
       height="8">
      <path
         id="path920"
         stroke-width="0.25"
         stroke="#000000"
         linecap="square"
         d="M8 4 l-4,4" />
      <path
         id="path922"
         stroke-width="0.25"
         stroke="#000000"
         linecap="square"
         d="M6 2 l-4,4" />
      <path
         id="path924"
         stroke-width="0.25"
         stroke="#000000"
         linecap="square"
         d="M4 0 l-4,4" />
    </pattern>
    <symbol
       id="*MODEL_SPACE-3" />
    <symbol
       id="*PAPER_SPACE-8" />
  </defs>
  <g
     inkscape:groupmode="layer"
     inkscape:label="0"
     id="g58">
    <path
       d="m 433.14029,176.34756 a 11.338583,11.338583 0 1 0 -22.67717,0 11.338583,11.338583 0 1 0 22.67717,0 z"
       style="fill:none;stroke:#000000"
       id="path18"
       inkscape:connector-curvature="0" />
    <path
       d="m 516.48851,292.39196 a 11.338583,11.338583 0 1 0 -22.67717,0 11.338583,11.338583 0 1 0 22.67717,0 z"
       style="fill:none;stroke:#000000"
       id="path20"
       inkscape:connector-curvature="0" />
    <path
       d="m 228.9232,344.90291 a 11.338583,11.338583 0 1 0 -22.67717,0 11.338583,11.338583 0 1 0 22.67717,0 z"
       style="fill:none;stroke:#000000"
       id="path22"
       inkscape:connector-curvature="0" />
    <path
       d="m 431.88308,725.78141 h 15.11811 V 710.6633 h -15.11811 z"
       style="fill:none;stroke:#000000"
       id="path24"
       inkscape:connector-curvature="0" />
    <path
       d="m 462.1193,801.37197 h -15.11811 v 75.59055 h 15.11811 v 170.07878 h -15.11811 v 75.5905 h 15.11811 v 170.0787 h -15.11811 v 75.5906 h 15.11811 v 170.0787 h -15.11811 v 75.5906 h 15.11811 v 210.7087 a 100.15748,100.15748 0 0 1 -200.31496,0 v -210.7087 h 15.11811 v -75.5906 h -15.11811 v -170.0787 h 15.11811 v -75.5906 h -15.11811 v -170.0787 h 15.11811 v -75.5905 H 261.80434 V 876.96252 h 15.11811 V 801.37197 H 261.80434 V 631.29323 h 15.11811 v -75.59056 h -15.11811 v -89.95196 l 6.86543,4.59471 8.25268,-13.22479 a 173.85827,173.85827 0 0 1 -15.6124,-9.83554 l -9.38719,11.87617 a 188.97638,188.97638 0 1 1 223.03516,-2.60774 l -9.01573,-12.13581 a 173.85827,173.85827 0 0 1 -18.9411,12.36086 l 8.56568,13.00469 6.55243,-4.41378 v 90.33319 h -15.11811 v 75.59056 h 15.11811 z"
       style="fill:none;stroke:#000000"
       id="path26"
       inkscape:connector-curvature="0" />
    <path
       d="m 431.88308,476.3326 h 15.11811 v -15.11811 h -15.11811 z"
       style="fill:none;stroke:#000000"
       id="path28"
       inkscape:connector-curvature="0" />
    <path
       d="m 447.00119,975.23023 v -15.11811 h -15.11811 v 15.11811 z"
       style="fill:none;stroke:#000000"
       id="path30"
       inkscape:connector-curvature="0" />
    <path
       d="m 447.00119,1224.6791 v -15.1182 h -15.11811 v 15.1182 z"
       style="fill:none;stroke:#000000"
       id="path32"
       inkscape:connector-curvature="0" />
    <path
       d="m 292.04056,461.21449 h -15.11811 v 15.11811 h 15.11811 z"
       style="fill:none;stroke:#000000"
       id="path34"
       inkscape:connector-curvature="0" />
    <path
       d="m 447.00119,1474.1279 v -15.1181 h -15.11811 v 15.1181 z"
       style="fill:none;stroke:#000000"
       id="path36"
       inkscape:connector-curvature="0" />
    <path
       d="m 292.04056,710.6633 h -15.11811 v 15.11811 h 15.11811 z"
       style="fill:none;stroke:#000000"
       id="path38"
       inkscape:connector-curvature="0" />
    <path
       d="m 447.00119,1723.5767 v -15.1181 h -15.11811 v 15.1181 z"
       style="fill:none;stroke:#000000"
       id="path40"
       inkscape:connector-curvature="0" />
    <path
       d="m 292.04056,960.11212 h -15.11811 v 15.11811 h 15.11811 z"
       style="fill:none;stroke:#000000"
       id="path42"
       inkscape:connector-curvature="0" />
    <path
       d="m 276.92245,1708.4586 v 15.1181 h 15.11811 v -15.1181 z"
       style="fill:none;stroke:#000000"
       id="path44"
       inkscape:connector-curvature="0" />
    <path
       d="m 292.04056,1209.5609 h -15.11811 v 15.1182 h 15.11811 z"
       style="fill:none;stroke:#000000"
       id="path46"
       inkscape:connector-curvature="0" />
    <path
       d="M 491.85302,264.58701 H 233.71129 v 131.8851 H 491.6096 a 158.74016,158.74016 0 0 0 0.24342,-0.34798 z"
       style="fill:#ff0000;stroke:#fe0000;fill-opacity:1;stroke-opacity:1"
       id="path48"
       inkscape:connector-curvature="0" />
    <path
       d="m 359.89212,141.55659 a 164.40945,164.40945 0 0 1 0.66132,0 z"
       style="fill:none;stroke:#000000"
       id="path50"
       inkscape:connector-curvature="0" />
    <path
       d="m 353.45788,607.12523 a 16.062992,16.062992 0 1 1 17.00788,0 v 24.168 h -17.00788 z"
       style="fill:none;stroke:#000000"
       id="path52"
       inkscape:connector-curvature="0" />
    <path
       d="m 370.66971,1840.742 v -24.168 a 16.062992,16.062992 0 1 0 -17.00787,0 v 24.168 z"
       style="fill:none;stroke:#000000"
       id="path54"
       inkscape:connector-curvature="0" />
    <path
       d="m 276.92245,1459.0098 v 15.1181 h 15.11811 v -15.1181 z"
       style="fill:none;stroke:#000000"
       id="path56"
       inkscape:connector-curvature="0" />
  </g>
</svg>
