<?xml version="1.0" encoding="UTF-8" standalone="no"?>
<svg
   xmlns:dc="http://purl.org/dc/elements/1.1/"
   xmlns:cc="http://creativecommons.org/ns#"
   xmlns:rdf="http://www.w3.org/1999/02/22-rdf-syntax-ns#"
   xmlns:svg="http://www.w3.org/2000/svg"
   xmlns="http://www.w3.org/2000/svg"
   xmlns:sodipodi="http://sodipodi.sourceforge.net/DTD/sodipodi-0.dtd"
   xmlns:inkscape="http://www.inkscape.org/namespaces/inkscape"
   width="793.700787402"
   height="1122.51968504"
   version="1.1"
   id="svg22"
   sodipodi:docname="front_1+2_x23.svg"
   inkscape:version="0.92.2 5c3e80d, 2017-08-06">
  <metadata
     id="metadata26">
    <rdf:RDF>
      <cc:Work
         rdf:about="">
        <dc:format>image/svg+xml</dc:format>
        <dc:type
           rdf:resource="http://purl.org/dc/dcmitype/StillImage" />
        <dc:title></dc:title>
      </cc:Work>
    </rdf:RDF>
  </metadata>
  <sodipodi:namedview
     pagecolor="#ffffff"
     bordercolor="#666666"
     borderopacity="1"
     objecttolerance="10"
     gridtolerance="10"
     guidetolerance="10"
     inkscape:pageopacity="0"
     inkscape:pageshadow="2"
     inkscape:window-width="1366"
     inkscape:window-height="667"
     id="namedview24"
     showgrid="false"
     inkscape:zoom="0.84096523"
     inkscape:cx="305.05557"
     inkscape:cy="268.01926"
     inkscape:window-x="0"
     inkscape:window-y="1"
     inkscape:window-maximized="1"
     inkscape:current-layer="g20" />
  <desc
     id="desc2">/Users/andersseverinsen/Desktop/front_1.dxf - scale = 1.000000, origin = (0.000000, 0.000000), method = manual</desc>
  <defs
     id="defs16">
    <marker
       id="DistanceX"
       orient="auto"
       refX="0.0"
       refY="0.0"
       style="overflow:visible">
      <path
         d="M 3,-3 L -3,3 M 0,-5 L  0,5"
         style="stroke:#000000; stroke-width:0.5"
         id="path4" />
    </marker>
    <pattern
       height="8"
       id="Hatch"
       patternUnits="userSpaceOnUse"
       width="8"
       x="0"
       y="0">
      <path
         d="M8 4 l-4,4"
         linecap="square"
         stroke="#000000"
         stroke-width="0.25"
         id="path7" />
      <path
         d="M6 2 l-4,4"
         linecap="square"
         stroke="#000000"
         stroke-width="0.25"
         id="path9" />
      <path
         d="M4 0 l-4,4"
         linecap="square"
         stroke="#000000"
         stroke-width="0.25"
         id="path11" />
    </pattern>
    <symbol
       id="*MODEL_SPACE" />
    <symbol
       id="*PAPER_SPACE" />
    <marker
       style="overflow:visible"
       refY="0.0"
       refX="0.0"
       orient="auto"
       id="DistanceX-7">
      <path
         id="path870"
         style="stroke:#000000; stroke-width:0.5"
         d="M 3,-3 L -3,3 M 0,-5 L  0,5" />
    </marker>
    <pattern
       y="0"
       x="0"
       width="8"
       patternUnits="userSpaceOnUse"
       id="Hatch-9"
       height="8">
      <path
         id="path873"
         stroke-width="0.25"
         stroke="#000000"
         linecap="square"
         d="M8 4 l-4,4" />
      <path
         id="path875"
         stroke-width="0.25"
         stroke="#000000"
         linecap="square"
         d="M6 2 l-4,4" />
      <path
         id="path877"
         stroke-width="0.25"
         stroke="#000000"
         linecap="square"
         d="M4 0 l-4,4" />
    </pattern>
    <symbol
       id="*MODEL_SPACE-3" />
    <symbol
       id="*PAPER_SPACE-8" />
  </defs>
  <g
     inkscape:groupmode="layer"
     inkscape:label="0"
     id="g20">
    <path
       d="M 58.49991,1060.5442 H 43.3818 v 41.5748 H 28.26369 v -68.0315 h 170.07874 v 68.0315 h -15.11811 v -41.5748 h -15.11811 v 26.4567 h -13.88976 v -4.5354 H 72.389674 v 4.5354 H 58.49991 Z"
       style="fill:none;stroke:#000000"
       id="path18"
       inkscape:connector-curvature="0" />
    <path
       inkscape:connector-curvature="0"
       id="path839"
       style="fill:none;stroke:#000000"
       d="m 244.57865,1060.5442 h -15.11811 v 41.5748 h -15.11811 v -68.0315 h 170.07874 v 68.0315 h -15.11811 v -41.5748 h -15.11811 v 26.4567 h -13.88976 v -4.5354 h -81.82678 v 4.5354 h -13.88976 z" />
    <path
       inkscape:connector-curvature="0"
       id="path841"
       style="fill:none;stroke:#000000"
       d="M 58.49991,980.5127 H 43.3818 v 41.5748 H 28.26369 V 954.056 h 170.07874 v 68.0315 h -15.11811 v -41.5748 h -15.11811 v 26.4567 h -13.88976 v -4.5354 H 72.389674 v 4.5354 H 58.49991 Z" />
    <path
       d="m 244.57865,980.5127 h -15.11811 v 41.5748 H 214.34243 V 954.056 h 170.07874 v 68.0315 h -15.11811 v -41.5748 h -15.11811 v 26.4567 h -13.88976 v -4.5354 h -81.82678 v 4.5354 h -13.88976 z"
       style="fill:none;stroke:#000000"
       id="path843"
       inkscape:connector-curvature="0" />
    <path
       d="M 58.49991,898.4812 H 43.3818 V 940.056 H 28.26369 v -68.0315 h 170.07874 v 68.0315 h -15.11811 v -41.5748 h -15.11811 v 26.4567 h -13.88976 v -4.5354 H 72.389674 v 4.5354 H 58.49991 Z"
       style="fill:none;stroke:#000000"
       id="path845"
       inkscape:connector-curvature="0" />
    <path
       inkscape:connector-curvature="0"
       id="path847"
       style="fill:none;stroke:#000000"
       d="m 244.57865,898.4812 h -15.11811 v 41.5748 h -15.11811 v -68.0315 h 170.07874 v 68.0315 h -15.11811 v -41.5748 h -15.11811 v 26.4567 h -13.88976 v -4.5354 h -81.82678 v 4.5354 h -13.88976 z" />
    <g
       id="g886"
       inkscape:label="0"
       transform="translate(483.93298,-19.5188)">
      <path
         id="path884"
         style="fill:none;stroke:#000000"
         d="m -55.275591,1096.063 h -15.11811 v 26.4567 h -15.11811 v -52.9134 h 170.07874 v 52.9134 h -15.11811 v -26.4567 h -15.11811 v 26.4567 H 40.440945 v -4.5354 h -81.826772 v 4.5354 h -13.889764 z"
         inkscape:connector-curvature="0" />
    </g>
    <g
       transform="translate(483.93298,-86.4322)"
       inkscape:label="0"
       id="g918">
      <path
         inkscape:connector-curvature="0"
         d="m -55.275591,1096.063 h -15.11811 v 26.4567 h -15.11811 v -52.9134 h 170.07874 v 52.9134 h -15.11811 v -26.4567 h -15.11811 v 26.4567 H 40.440945 v -4.5354 h -81.826772 v 4.5354 h -13.889764 z"
         style="fill:none;stroke:#000000"
         id="path916" />
    </g>
    <g
       transform="translate(483.93298,-153.3456)"
       inkscape:label="0"
       id="g922">
      <path
         inkscape:connector-curvature="0"
         d="m -55.275591,1096.063 h -15.11811 v 26.4567 h -15.11811 v -52.9134 h 170.07874 v 52.9134 h -15.11811 v -26.4567 h -15.11811 v 26.4567 H 40.440945 v -4.5354 h -81.826772 v 4.5354 h -13.889764 z"
         style="fill:none;stroke:#000000"
         id="path920" />
    </g>
    <g
       id="g926"
       inkscape:label="0"
       transform="translate(483.93298,-220.259)">
      <path
         id="path924"
         style="fill:none;stroke:#000000"
         d="m -55.275591,1096.063 h -15.11811 v 26.4567 h -15.11811 v -52.9134 h 170.07874 v 52.9134 h -15.11811 v -26.4567 h -15.11811 v 26.4567 H 40.440945 v -4.5354 h -81.826772 v 4.5354 h -13.889764 z"
         inkscape:connector-curvature="0" />
    </g>
    <g
       transform="translate(666.01172,-19.5188)"
       inkscape:label="0"
       id="g930">
      <path
         inkscape:connector-curvature="0"
         d="m -55.275591,1096.063 h -15.11811 v 26.4567 h -15.11811 v -52.9134 h 170.07874 v 52.9134 h -15.11811 v -26.4567 h -15.11811 v 26.4567 H 40.440945 v -4.5354 h -81.826772 v 4.5354 h -13.889764 z"
         style="fill:none;stroke:#000000"
         id="path928" />
    </g>
    <g
       id="g934"
       inkscape:label="0"
       transform="translate(666.01172,-86.4322)">
      <path
         id="path932"
         style="fill:none;stroke:#000000"
         d="m -55.275591,1096.063 h -15.11811 v 26.4567 h -15.11811 v -52.9134 h 170.07874 v 52.9134 h -15.11811 v -26.4567 h -15.11811 v 26.4567 H 40.440945 v -4.5354 h -81.826772 v 4.5354 h -13.889764 z"
         inkscape:connector-curvature="0" />
    </g>
    <g
       id="g938"
       inkscape:label="0"
       transform="translate(666.01172,-153.3456)">
      <path
         id="path936"
         style="fill:none;stroke:#000000"
         d="m -55.275591,1096.063 h -15.11811 v 26.4567 h -15.11811 v -52.9134 h 170.07874 v 52.9134 h -15.11811 v -26.4567 h -15.11811 v 26.4567 H 40.440945 v -4.5354 h -81.826772 v 4.5354 h -13.889764 z"
         inkscape:connector-curvature="0" />
    </g>
    <g
       transform="translate(666.01172,-220.259)"
       inkscape:label="0"
       id="g942">
      <path
         inkscape:connector-curvature="0"
         d="m -55.275591,1096.063 h -15.11811 v 26.4567 h -15.11811 v -52.9134 h 170.07874 v 52.9134 h -15.11811 v -26.4567 h -15.11811 v 26.4567 H 40.440945 v -4.5354 h -81.826772 v 4.5354 h -13.889764 z"
         style="fill:none;stroke:#000000"
         id="path940" />
    </g>
    <g
       transform="translate(483.93298,-285.1724)"
       inkscape:label="0"
       id="g946">
      <path
         inkscape:connector-curvature="0"
         d="m -55.275591,1096.063 h -15.11811 v 26.4567 h -15.11811 v -52.9134 h 170.07874 v 52.9134 h -15.11811 v -26.4567 h -15.11811 v 26.4567 H 40.440945 v -4.5354 h -81.826772 v 4.5354 h -13.889764 z"
         style="fill:none;stroke:#000000"
         id="path944" />
    </g>
    <g
       id="g950"
       inkscape:label="0"
       transform="translate(483.93298,-352.0858)">
      <path
         id="path948"
         style="fill:none;stroke:#000000"
         d="m -55.275591,1096.063 h -15.11811 v 26.4567 h -15.11811 v -52.9134 h 170.07874 v 52.9134 h -15.11811 v -26.4567 h -15.11811 v 26.4567 H 40.440945 v -4.5354 h -81.826772 v 4.5354 h -13.889764 z"
         inkscape:connector-curvature="0" />
    </g>
    <g
       id="g954"
       inkscape:label="0"
       transform="translate(483.93298,-418.9992)">
      <path
         id="path952"
         style="fill:none;stroke:#000000"
         d="m -55.275591,1096.063 h -15.11811 v 26.4567 h -15.11811 v -52.9134 h 170.07874 v 52.9134 h -15.11811 v -26.4567 h -15.11811 v 26.4567 H 40.440945 v -4.5354 h -81.826772 v 4.5354 h -13.889764 z"
         inkscape:connector-curvature="0" />
    </g>
    <g
       transform="translate(483.93298,-485.9126)"
       inkscape:label="0"
       id="g958">
      <path
         inkscape:connector-curvature="0"
         d="m -55.275591,1096.063 h -15.11811 v 26.4567 h -15.11811 v -52.9134 h 170.07874 v 52.9134 h -15.11811 v -26.4567 h -15.11811 v 26.4567 H 40.440945 v -4.5354 h -81.826772 v 4.5354 h -13.889764 z"
         style="fill:none;stroke:#000000"
         id="path956" />
    </g>
    <g
       id="g962"
       inkscape:label="0"
       transform="translate(666.01172,-285.1724)">
      <path
         id="path960"
         style="fill:none;stroke:#000000"
         d="m -55.275591,1096.063 h -15.11811 v 26.4567 h -15.11811 v -52.9134 h 170.07874 v 52.9134 h -15.11811 v -26.4567 h -15.11811 v 26.4567 H 40.440945 v -4.5354 h -81.826772 v 4.5354 h -13.889764 z"
         inkscape:connector-curvature="0" />
    </g>
    <g
       transform="translate(666.01172,-352.0858)"
       inkscape:label="0"
       id="g966">
      <path
         inkscape:connector-curvature="0"
         d="m -55.275591,1096.063 h -15.11811 v 26.4567 h -15.11811 v -52.9134 h 170.07874 v 52.9134 h -15.11811 v -26.4567 h -15.11811 v 26.4567 H 40.440945 v -4.5354 h -81.826772 v 4.5354 h -13.889764 z"
         style="fill:none;stroke:#000000"
         id="path964" />
    </g>
    <g
       transform="translate(666.01172,-418.9992)"
       inkscape:label="0"
       id="g970">
      <path
         inkscape:connector-curvature="0"
         d="m -55.275591,1096.063 h -15.11811 v 26.4567 h -15.11811 v -52.9134 h 170.07874 v 52.9134 h -15.11811 v -26.4567 h -15.11811 v 26.4567 H 40.440945 v -4.5354 h -81.826772 v 4.5354 h -13.889764 z"
         style="fill:none;stroke:#000000"
         id="path968" />
    </g>
    <g
       id="g974"
       inkscape:label="0"
       transform="translate(666.01172,-485.9126)">
      <path
         id="path972"
         style="fill:none;stroke:#000000"
         d="m -55.275591,1096.063 h -15.11811 v 26.4567 h -15.11811 v -52.9134 h 170.07874 v 52.9134 h -15.11811 v -26.4567 h -15.11811 v 26.4567 H 40.440945 v -4.5354 h -81.826772 v 4.5354 h -13.889764 z"
         inkscape:connector-curvature="0" />
    </g>
    <g
       id="g978"
       inkscape:label="0"
       transform="translate(300.77403,-262.14664)">
      <path
         id="path976"
         style="fill:none;stroke:#000000"
         d="m -55.275591,1096.063 h -15.11811 v 26.4567 h -15.11811 v -52.9134 h 170.07874 v 52.9134 h -15.11811 v -26.4567 h -15.11811 v 26.4567 H 40.440945 v -4.5354 h -81.826772 v 4.5354 h -13.889764 z"
         inkscape:connector-curvature="0" />
    </g>
  </g>
</svg>
