<?xml version="1.0" encoding="UTF-8" standalone="no"?>
<svg
   xmlns:dc="http://purl.org/dc/elements/1.1/"
   xmlns:cc="http://creativecommons.org/ns#"
   xmlns:rdf="http://www.w3.org/1999/02/22-rdf-syntax-ns#"
   xmlns:svg="http://www.w3.org/2000/svg"
   xmlns="http://www.w3.org/2000/svg"
   xmlns:sodipodi="http://sodipodi.sourceforge.net/DTD/sodipodi-0.dtd"
   xmlns:inkscape="http://www.inkscape.org/namespaces/inkscape"
   width="793.700787402"
   height="1122.51968504"
   version="1.1"
   id="svg22"
   sodipodi:docname="sides.svg"
   inkscape:version="0.92.2 5c3e80d, 2017-08-06">
  <metadata
     id="metadata26">
    <rdf:RDF>
      <cc:Work
         rdf:about="">
        <dc:format>image/svg+xml</dc:format>
        <dc:type
           rdf:resource="http://purl.org/dc/dcmitype/StillImage" />
        <dc:title></dc:title>
      </cc:Work>
    </rdf:RDF>
  </metadata>
  <sodipodi:namedview
     pagecolor="#ffffff"
     bordercolor="#666666"
     borderopacity="1"
     objecttolerance="10"
     gridtolerance="10"
     guidetolerance="10"
     inkscape:pageopacity="0"
     inkscape:pageshadow="2"
     inkscape:window-width="1366"
     inkscape:window-height="667"
     id="namedview24"
     showgrid="false"
     inkscape:measure-start="280.83,947.399"
     inkscape:measure-end="280.83,-154.058"
     inkscape:zoom="2.3786089"
     inkscape:cx="328.38717"
     inkscape:cy="1058.4869"
     inkscape:window-x="0"
     inkscape:window-y="1"
     inkscape:window-maximized="1"
     inkscape:current-layer="g20" />
  <desc
     id="desc2">/Users/andersseverinsen/Desktop/side1-v5.1.dxf - scale = 1.000000, origin = (0.000000, 0.000000), method = manual</desc>
  <defs
     id="defs16">
    <marker
       id="DistanceX"
       orient="auto"
       refX="0.0"
       refY="0.0"
       style="overflow:visible">
      <path
         d="M 3,-3 L -3,3 M 0,-5 L  0,5"
         style="stroke:#000000; stroke-width:0.5"
         id="path4" />
    </marker>
    <pattern
       height="8"
       id="Hatch"
       patternUnits="userSpaceOnUse"
       width="8"
       x="0"
       y="0">
      <path
         d="M8 4 l-4,4"
         linecap="square"
         stroke="#000000"
         stroke-width="0.25"
         id="path7" />
      <path
         d="M6 2 l-4,4"
         linecap="square"
         stroke="#000000"
         stroke-width="0.25"
         id="path9" />
      <path
         d="M4 0 l-4,4"
         linecap="square"
         stroke="#000000"
         stroke-width="0.25"
         id="path11" />
    </pattern>
    <symbol
       id="*MODEL_SPACE" />
    <symbol
       id="*PAPER_SPACE" />
    <marker
       style="overflow:visible"
       refY="0.0"
       refX="0.0"
       orient="auto"
       id="DistanceX-7">
      <path
         id="path921"
         style="stroke:#000000; stroke-width:0.5"
         d="M 3,-3 L -3,3 M 0,-5 L  0,5" />
    </marker>
    <pattern
       y="0"
       x="0"
       width="8"
       patternUnits="userSpaceOnUse"
       id="Hatch-9"
       height="8">
      <path
         id="path924"
         stroke-width="0.25"
         stroke="#000000"
         linecap="square"
         d="M8 4 l-4,4" />
      <path
         id="path926"
         stroke-width="0.25"
         stroke="#000000"
         linecap="square"
         d="M6 2 l-4,4" />
      <path
         id="path928"
         stroke-width="0.25"
         stroke="#000000"
         linecap="square"
         d="M4 0 l-4,4" />
    </pattern>
    <symbol
       id="*MODEL_SPACE-3" />
    <symbol
       id="*PAPER_SPACE-8" />
  </defs>
  <g
     inkscape:groupmode="layer"
     inkscape:label="0"
     id="g20">
    <path
       d="m 388.55674,1118.5017 h 90.70867 V 17.04536 H 373.43863 v 37.7953 h 15.11811 v 170.0787 h -15.11811 v 75.59057 h 15.11811 v 170.0787 h -15.11811 v 75.5906 h 15.11811 v 170.0787 h -15.11811 v 75.59055 h 15.11811 v 170.07873 h -15.11811 v 75.59059 h 15.11811 z"
       style="fill:none;stroke:#000000"
       id="path18"
       inkscape:connector-curvature="0" />
    <g
       aria-label="Right Side"
       style="font-style:normal;font-weight:normal;font-size:8px;line-height:1.25;font-family:sans-serif;letter-spacing:0px;word-spacing:0px;fill:#0000fb;fill-opacity:1;stroke:none"
       id="text841">
      <path
         d="m 435.3718,24.441008 q 0.2539,0.08594 0.49218,0.367187 0.24219,0.28125 0.48438,0.773438 l 0.80078,1.59375 h -0.84766 l -0.74609,-1.496094 q -0.28906,-0.585938 -0.5625,-0.777344 -0.26953,-0.191406 -0.73828,-0.191406 h -0.85938 v 2.464844 h -0.78906 v -5.832032 h 1.78125 q 1,0 1.49219,0.417969 0.49219,0.417969 0.49219,1.261719 0,0.550781 -0.25782,0.914062 -0.2539,0.363282 -0.74218,0.503907 z m -1.97657,-2.449219 v 2.070312 h 0.99219 q 0.57031,0 0.85938,-0.261718 0.29296,-0.265625 0.29296,-0.777344 0,-0.511719 -0.29296,-0.769531 -0.28907,-0.261719 -0.85938,-0.261719 z"
         id="path843"
         inkscape:connector-curvature="0" />
      <path
         d="m 438.13742,22.800383 h 0.71875 v 4.375 h -0.71875 z m 0,-1.703125 h 0.71875 v 0.910156 h -0.71875 z"
         id="path845"
         inkscape:connector-curvature="0" />
      <path
         d="m 443.23508,24.937101 q 0,-0.78125 -0.32422,-1.210937 -0.32031,-0.429688 -0.90235,-0.429688 -0.57812,0 -0.90234,0.429688 -0.32031,0.429687 -0.32031,1.210937 0,0.777344 0.32031,1.207032 0.32422,0.429687 0.90234,0.429687 0.58204,0 0.90235,-0.429687 0.32422,-0.429688 0.32422,-1.207032 z m 0.71875,1.695313 q 0,1.117187 -0.4961,1.660156 -0.49609,0.546875 -1.51953,0.546875 -0.3789,0 -0.71484,-0.05859 -0.33594,-0.05469 -0.65235,-0.171875 v -0.699218 q 0.31641,0.171875 0.625,0.253906 0.3086,0.08203 0.62891,0.08203 0.70703,0 1.05859,-0.371094 0.35157,-0.367187 0.35157,-1.113281 v -0.355469 q -0.22266,0.386719 -0.57032,0.578125 -0.34765,0.191407 -0.83203,0.191407 -0.80468,0 -1.29687,-0.613282 -0.49219,-0.613281 -0.49219,-1.625 0,-1.015625 0.49219,-1.628906 0.49219,-0.613281 1.29687,-0.613281 0.48438,0 0.83203,0.191406 0.34766,0.191406 0.57032,0.578125 v -0.664062 h 0.71875 z"
         id="path847"
         inkscape:connector-curvature="0" />
      <path
         d="m 449.07101,24.534758 v 2.640625 h -0.71875 v -2.617188 q 0,-0.621094 -0.24218,-0.929687 -0.24219,-0.308594 -0.72657,-0.308594 -0.58203,0 -0.91796,0.371094 -0.33594,0.371093 -0.33594,1.011718 v 2.472657 h -0.72266 v -6.078125 h 0.72266 v 2.382812 q 0.25781,-0.394531 0.60547,-0.589844 0.35156,-0.195312 0.80859,-0.195312 0.75391,0 1.14063,0.46875 0.38671,0.464844 0.38671,1.371094 z"
         id="path849"
         inkscape:connector-curvature="0" />
      <path
         d="m 451.22336,21.558195 v 1.242188 h 1.48047 v 0.558593 h -1.48047 v 2.375 q 0,0.535157 0.14453,0.6875 0.14844,0.152344 0.59766,0.152344 h 0.73828 v 0.601563 h -0.73828 q -0.83204,0 -1.14844,-0.308594 -0.31641,-0.3125 -0.31641,-1.132813 v -2.375 h -0.52734 v -0.558593 h 0.52734 v -1.242188 z"
         id="path851"
         inkscape:connector-curvature="0" />
      <path
         d="m 459.72726,21.534758 v 0.769531 q -0.44921,-0.214844 -0.84765,-0.320313 -0.39844,-0.105468 -0.76953,-0.105468 -0.64453,0 -0.9961,0.25 -0.34765,0.25 -0.34765,0.710937 0,0.386719 0.23047,0.585938 0.23437,0.195312 0.88281,0.316406 l 0.47656,0.09766 q 0.88281,0.167969 1.30078,0.59375 0.42188,0.421875 0.42188,1.132813 0,0.847656 -0.57032,1.285156 -0.5664,0.4375 -1.66406,0.4375 -0.41406,0 -0.88281,-0.09375 -0.46484,-0.09375 -0.96484,-0.277344 v -0.8125 q 0.48046,0.269531 0.9414,0.40625 0.46094,0.136719 0.90625,0.136719 0.67578,0 1.04297,-0.265625 0.36719,-0.265625 0.36719,-0.757813 0,-0.429687 -0.26563,-0.671875 -0.26172,-0.242187 -0.86328,-0.363281 l -0.48047,-0.09375 q -0.88281,-0.175781 -1.27734,-0.550781 -0.39453,-0.375 -0.39453,-1.042969 0,-0.773437 0.54297,-1.21875 0.54687,-0.445312 1.5039,-0.445312 0.41016,0 0.83594,0.07422 0.42578,0.07422 0.87109,0.222657 z"
         id="path853"
         inkscape:connector-curvature="0" />
      <path
         d="m 461.27805,22.800383 h 0.71875 v 4.375 h -0.71875 z m 0,-1.703125 h 0.71875 v 0.910156 h -0.71875 z"
         id="path855"
         inkscape:connector-curvature="0" />
      <path
         d="m 466.3757,23.464445 v -2.367187 h 0.71875 v 6.078125 h -0.71875 v -0.65625 q -0.22656,0.390625 -0.57422,0.582031 -0.34375,0.1875 -0.82812,0.1875 -0.79297,0 -1.29297,-0.632813 -0.49609,-0.632812 -0.49609,-1.664062 0,-1.03125 0.49609,-1.664063 0.5,-0.632812 1.29297,-0.632812 0.48437,0 0.82812,0.191406 0.34766,0.1875 0.57422,0.578125 z m -2.44922,1.527344 q 0,0.792969 0.32422,1.246094 0.32813,0.449218 0.89844,0.449218 0.57031,0 0.89844,-0.449218 0.32812,-0.453125 0.32812,-1.246094 0,-0.792969 -0.32812,-1.242188 -0.32813,-0.453125 -0.89844,-0.453125 -0.57031,0 -0.89844,0.453125 -0.32422,0.449219 -0.32422,1.242188 z"
         id="path857"
         inkscape:connector-curvature="0" />
      <path
         d="m 472.31711,24.808195 v 0.351563 h -3.30469 q 0.0469,0.742187 0.44531,1.132812 0.40235,0.386719 1.11719,0.386719 0.41406,0 0.80078,-0.101563 0.39063,-0.101562 0.77344,-0.304687 v 0.679687 q -0.38672,0.164063 -0.79297,0.25 -0.40625,0.08594 -0.82422,0.08594 -1.04687,0 -1.66015,-0.609375 -0.60938,-0.609375 -0.60938,-1.648438 0,-1.074218 0.57813,-1.703125 0.58203,-0.632812 1.5664,-0.632812 0.88281,0 1.39453,0.570312 0.51563,0.566407 0.51563,1.542969 z m -0.71875,-0.210937 q -0.008,-0.589844 -0.33203,-0.941407 -0.32032,-0.351562 -0.85157,-0.351562 -0.60156,0 -0.96484,0.339844 -0.35937,0.339843 -0.41406,0.957031 z"
         id="path859"
         inkscape:connector-curvature="0" />
    </g>
    <g
       id="g937"
       inkscape:label="0"
       transform="matrix(1,0,0,-1,156.98194,2278.1452)">
      <path
         id="path935"
         style="fill:none;stroke:#000000"
         d="m 100.62992,1154.6923 h 90.70866 v 85.9351 h 15.11811 v 75.5906 h -15.11811 v 170.0787 h 15.11811 v 75.5906 h -15.11811 v 170.0787 h 15.11811 v 75.5906 h -15.11811 v 170.0787 h 15.11811 v 75.5906 h -15.11811 v 170.0787 h 15.11811 v 37.7953 H 100.62992 Z"
         inkscape:connector-curvature="0" />
    </g>
    <g
       aria-label="Left Side"
       style="font-style:normal;font-weight:normal;font-size:8px;line-height:1.25;font-family:sans-serif;letter-spacing:0px;word-spacing:0px;fill:#0000fa;fill-opacity:1;stroke:none"
       id="text969">
      <path
         d="m 263.79477,22.89245 h 0.78906 v 5.167969 h 2.83985 v 0.664063 h -3.62891 z"
         style=""
         id="path971" />
      <path
         d="m 271.82602,26.357294 v 0.351563 h -3.30469 q 0.0469,0.742187 0.44531,1.132812 0.40235,0.386719 1.11719,0.386719 0.41406,0 0.80078,-0.101563 0.39063,-0.101562 0.77344,-0.304687 v 0.679687 q -0.38672,0.164063 -0.79297,0.25 -0.40625,0.08594 -0.82422,0.08594 -1.04687,0 -1.66015,-0.609375 -0.60938,-0.609375 -0.60938,-1.648438 0,-1.074218 0.57813,-1.703125 0.58203,-0.632812 1.5664,-0.632812 0.88282,0 1.39453,0.570312 0.51563,0.566407 0.51563,1.542969 z m -0.71875,-0.210937 q -0.008,-0.589844 -0.33203,-0.941407 -0.32031,-0.351562 -0.85156,-0.351562 -0.60157,0 -0.96485,0.339844 -0.35937,0.339843 -0.41406,0.957031 z"
         style=""
         id="path973" />
      <path
         d="m 275.22836,22.646357 v 0.597656 h -0.6875 q -0.38672,0 -0.53906,0.15625 -0.14844,0.15625 -0.14844,0.5625 v 0.386719 h 1.1836 v 0.558593 h -1.1836 v 3.816407 h -0.72265 v -3.816407 h -0.6875 v -0.558593 h 0.6875 v -0.304688 q 0,-0.730469 0.33984,-1.0625 0.33984,-0.335937 1.07813,-0.335937 z"
         style=""
         id="path975" />
      <path
         d="m 276.40414,23.107294 v 1.242188 h 1.48047 v 0.558593 h -1.48047 v 2.375 q 0,0.535157 0.14454,0.6875 0.14843,0.152344 0.59765,0.152344 h 0.73828 v 0.601563 h -0.73828 q -0.83203,0 -1.14844,-0.308594 -0.3164,-0.3125 -0.3164,-1.132813 v -2.375 h -0.52735 v -0.558593 h 0.52735 v -1.242188 z"
         style=""
         id="path977" />
      <path
         d="m 284.91586,23.083857 v 0.769531 q -0.44922,-0.214844 -0.84765,-0.320313 -0.39844,-0.105468 -0.76953,-0.105468 -0.64454,0 -0.9961,0.25 -0.34765,0.25 -0.34765,0.710937 0,0.386719 0.23046,0.585938 0.23438,0.195312 0.88282,0.316406 l 0.47656,0.09766 q 0.88281,0.167969 1.30078,0.59375 0.42188,0.421875 0.42188,1.132813 0,0.847656 -0.57032,1.285156 -0.5664,0.4375 -1.66406,0.4375 -0.41406,0 -0.88281,-0.09375 -0.46485,-0.09375 -0.96485,-0.277344 v -0.8125 q 0.48047,0.269531 0.94141,0.40625 0.46094,0.136719 0.90625,0.136719 0.67578,0 1.04297,-0.265625 0.36719,-0.265625 0.36719,-0.757813 0,-0.429687 -0.26563,-0.671875 -0.26172,-0.242187 -0.86328,-0.363281 l -0.48047,-0.09375 q -0.88281,-0.175781 -1.27734,-0.550781 -0.39453,-0.375 -0.39453,-1.042969 0,-0.773437 0.54297,-1.21875 0.54687,-0.445312 1.5039,-0.445312 0.41016,0 0.83594,0.07422 0.42578,0.07422 0.87109,0.222657 z"
         style=""
         id="path979" />
      <path
         d="m 286.46664,24.349482 h 0.71875 v 4.375 h -0.71875 z m 0,-1.703125 h 0.71875 v 0.910156 h -0.71875 z"
         style=""
         id="path981" />
      <path
         d="m 291.5643,25.013544 v -2.367187 h 0.71875 v 6.078125 h -0.71875 v -0.65625 q -0.22656,0.390625 -0.57422,0.582031 -0.34375,0.1875 -0.82812,0.1875 -0.79297,0 -1.29297,-0.632813 -0.4961,-0.632812 -0.4961,-1.664062 0,-1.03125 0.4961,-1.664063 0.5,-0.632812 1.29297,-0.632812 0.48437,0 0.82812,0.191406 0.34766,0.1875 0.57422,0.578125 z m -2.44922,1.527344 q 0,0.792969 0.32422,1.246094 0.32813,0.449218 0.89844,0.449218 0.57031,0 0.89844,-0.449218 0.32812,-0.453125 0.32812,-1.246094 0,-0.792969 -0.32812,-1.242188 -0.32813,-0.453125 -0.89844,-0.453125 -0.57031,0 -0.89844,0.453125 -0.32422,0.449219 -0.32422,1.242188 z"
         style=""
         id="path983" />
      <path
         d="m 297.50571,26.357294 v 0.351563 h -3.30469 q 0.0469,0.742187 0.44531,1.132812 0.40235,0.386719 1.11719,0.386719 0.41406,0 0.80078,-0.101563 0.39063,-0.101562 0.77344,-0.304687 v 0.679687 q -0.38672,0.164063 -0.79297,0.25 -0.40625,0.08594 -0.82422,0.08594 -1.04687,0 -1.66016,-0.609375 -0.60937,-0.609375 -0.60937,-1.648438 0,-1.074218 0.57812,-1.703125 0.58204,-0.632812 1.56641,-0.632812 0.88281,0 1.39453,0.570312 0.51563,0.566407 0.51563,1.542969 z m -0.71875,-0.210937 q -0.008,-0.589844 -0.33203,-0.941407 -0.32032,-0.351562 -0.85157,-0.351562 -0.60156,0 -0.96484,0.339844 -0.35938,0.339843 -0.41406,0.957031 z"
         style=""
         id="path985" />
    </g>
  </g>
</svg>
