<?xml version="1.0" encoding="UTF-8" standalone="no"?>
<svg
   xmlns:dc="http://purl.org/dc/elements/1.1/"
   xmlns:cc="http://creativecommons.org/ns#"
   xmlns:rdf="http://www.w3.org/1999/02/22-rdf-syntax-ns#"
   xmlns:svg="http://www.w3.org/2000/svg"
   xmlns="http://www.w3.org/2000/svg"
   xmlns:sodipodi="http://sodipodi.sourceforge.net/DTD/sodipodi-0.dtd"
   xmlns:inkscape="http://www.inkscape.org/namespaces/inkscape"
   width="793.700787402"
   height="1122.51968504"
   version="1.1"
   id="svg20"
   sodipodi:docname="TopTop-x21.svg"
   inkscape:version="0.92.2 5c3e80d, 2017-08-06">
  <metadata
     id="metadata24">
    <rdf:RDF>
      <cc:Work
         rdf:about="">
        <dc:format>image/svg+xml</dc:format>
        <dc:type
           rdf:resource="http://purl.org/dc/dcmitype/StillImage" />
        <dc:title></dc:title>
      </cc:Work>
    </rdf:RDF>
  </metadata>
  <sodipodi:namedview
     pagecolor="#ffffff"
     bordercolor="#666666"
     borderopacity="1"
     objecttolerance="10"
     gridtolerance="10"
     guidetolerance="10"
     inkscape:pageopacity="0"
     inkscape:pageshadow="2"
     inkscape:window-width="1366"
     inkscape:window-height="667"
     id="namedview22"
     showgrid="false"
     inkscape:zoom="1.1893044"
     inkscape:cx="346.7082"
     inkscape:cy="181.46601"
     inkscape:window-x="0"
     inkscape:window-y="1"
     inkscape:window-maximized="1"
     inkscape:current-layer="g18" />
  <desc
     id="desc2">/Users/andersseverinsen/Desktop/TopTop.dxf - scale = 1.000000, origin = (0.000000, 0.000000), method = manual</desc>
  <defs
     id="defs16">
    <marker
       id="DistanceX"
       orient="auto"
       refX="0.0"
       refY="0.0"
       style="overflow:visible">
      <path
         d="M 3,-3 L -3,3 M 0,-5 L  0,5"
         style="stroke:#000000; stroke-width:0.5"
         id="path4" />
    </marker>
    <pattern
       height="8"
       id="Hatch"
       patternUnits="userSpaceOnUse"
       width="8"
       x="0"
       y="0">
      <path
         d="M8 4 l-4,4"
         linecap="square"
         stroke="#000000"
         stroke-width="0.25"
         id="path7" />
      <path
         d="M6 2 l-4,4"
         linecap="square"
         stroke="#000000"
         stroke-width="0.25"
         id="path9" />
      <path
         d="M4 0 l-4,4"
         linecap="square"
         stroke="#000000"
         stroke-width="0.25"
         id="path11" />
    </pattern>
    <symbol
       id="*MODEL_SPACE" />
    <symbol
       id="*PAPER_SPACE" />
    <marker
       style="overflow:visible"
       refY="0.0"
       refX="0.0"
       orient="auto"
       id="DistanceX-7">
      <path
         id="path858"
         style="stroke:#000000; stroke-width:0.5"
         d="M 3,-3 L -3,3 M 0,-5 L  0,5" />
    </marker>
    <pattern
       y="0"
       x="0"
       width="8"
       patternUnits="userSpaceOnUse"
       id="Hatch-9"
       height="8">
      <path
         id="path861"
         stroke-width="0.25"
         stroke="#000000"
         linecap="square"
         d="M8 4 l-4,4" />
      <path
         id="path863"
         stroke-width="0.25"
         stroke="#000000"
         linecap="square"
         d="M6 2 l-4,4" />
      <path
         id="path865"
         stroke-width="0.25"
         stroke="#000000"
         linecap="square"
         d="M4 0 l-4,4" />
    </pattern>
    <symbol
       id="*MODEL_SPACE-3" />
    <symbol
       id="*PAPER_SPACE-8" />
    <marker
       style="overflow:visible"
       refY="0.0"
       refX="0.0"
       orient="auto"
       id="DistanceX-0">
      <path
         id="path941"
         style="stroke:#000000; stroke-width:0.5"
         d="M 3,-3 L -3,3 M 0,-5 L  0,5" />
    </marker>
    <pattern
       y="0"
       x="0"
       width="8"
       patternUnits="userSpaceOnUse"
       id="Hatch-2"
       height="8">
      <path
         id="path944"
         stroke-width="0.25"
         stroke="#000000"
         linecap="square"
         d="M8 4 l-4,4" />
      <path
         id="path946"
         stroke-width="0.25"
         stroke="#000000"
         linecap="square"
         d="M6 2 l-4,4" />
      <path
         id="path948"
         stroke-width="0.25"
         stroke="#000000"
         linecap="square"
         d="M4 0 l-4,4" />
    </pattern>
    <symbol
       id="*MODEL_SPACE-4" />
    <symbol
       id="*PAPER_SPACE-83" />
    <marker
       style="overflow:visible"
       refY="0.0"
       refX="0.0"
       orient="auto"
       id="DistanceX-9">
      <path
         id="path1011"
         style="stroke:#000000; stroke-width:0.5"
         d="M 3,-3 L -3,3 M 0,-5 L  0,5" />
    </marker>
    <pattern
       y="0"
       x="0"
       width="8"
       patternUnits="userSpaceOnUse"
       id="Hatch-0"
       height="8">
      <path
         id="path1014"
         stroke-width="0.25"
         stroke="#000000"
         linecap="square"
         d="M8 4 l-4,4" />
      <path
         id="path1016"
         stroke-width="0.25"
         stroke="#000000"
         linecap="square"
         d="M6 2 l-4,4" />
      <path
         id="path1018"
         stroke-width="0.25"
         stroke="#000000"
         linecap="square"
         d="M4 0 l-4,4" />
    </pattern>
    <symbol
       id="*MODEL_SPACE-5" />
    <symbol
       id="*PAPER_SPACE-2" />
  </defs>
  <g
     inkscape:groupmode="layer"
     inkscape:label="0"
     id="g18">
    <g
       id="g872"
       inkscape:label="0" />
    <g
       id="g955"
       inkscape:label="0" />
    <g
       id="g1027"
       inkscape:label="0"
       transform="translate(113.6821,-105.17015)">
      <path
         id="path1025"
         style="fill:none;stroke:#000000"
         d="m -56.220472,1208.5039 a 5.669291,5.669291 0 0 1 -5.669292,-5.6693 v -35.9055 a 5.669291,5.669291 0 0 1 5.669292,-5.6693 H 57.165354 a 5.669291,5.669291 0 0 1 5.669292,5.6693 v 35.9055 a 5.669291,5.669291 0 0 1 -5.669292,5.6693 z"
         inkscape:connector-curvature="0" />
    </g>
    <g
       transform="translate(113.6821,-162.77898)"
       inkscape:label="0"
       id="g1071">
      <path
         inkscape:connector-curvature="0"
         d="m -56.220472,1208.5039 a 5.669291,5.669291 0 0 1 -5.669292,-5.6693 v -35.9055 a 5.669291,5.669291 0 0 1 5.669292,-5.6693 H 57.165354 a 5.669291,5.669291 0 0 1 5.669292,5.6693 v 35.9055 a 5.669291,5.669291 0 0 1 -5.669292,5.6693 z"
         style="fill:none;stroke:#000000"
         id="path1069" />
    </g>
    <g
       transform="translate(113.6821,-105.17015)"
       inkscape:label="0"
       id="g1075">
      <path
         inkscape:connector-curvature="0"
         d="m -56.220472,1208.5039 a 5.669291,5.669291 0 0 1 -5.669292,-5.6693 v -35.9055 a 5.669291,5.669291 0 0 1 5.669292,-5.6693 H 57.165354 a 5.669291,5.669291 0 0 1 5.669292,5.6693 v 35.9055 a 5.669291,5.669291 0 0 1 -5.669292,5.6693 z"
         style="fill:none;stroke:#000000"
         id="path1073" />
    </g>
    <g
       id="g1079"
       inkscape:label="0"
       transform="translate(251.53645,-161.93815)">
      <path
         id="path1077"
         style="fill:none;stroke:#000000"
         d="m -56.220472,1208.5039 a 5.669291,5.669291 0 0 1 -5.669292,-5.6693 v -35.9055 a 5.669291,5.669291 0 0 1 5.669292,-5.6693 H 57.165354 a 5.669291,5.669291 0 0 1 5.669292,5.6693 v 35.9055 a 5.669291,5.669291 0 0 1 -5.669292,5.6693 z"
         inkscape:connector-curvature="0" />
    </g>
    <g
       id="g1083"
       inkscape:label="0"
       transform="translate(251.53645,-104.32932)">
      <path
         id="path1081"
         style="fill:none;stroke:#000000"
         d="m -56.220472,1208.5039 a 5.669291,5.669291 0 0 1 -5.669292,-5.6693 v -35.9055 a 5.669291,5.669291 0 0 1 5.669292,-5.6693 H 57.165354 a 5.669291,5.669291 0 0 1 5.669292,5.6693 v 35.9055 a 5.669291,5.669291 0 0 1 -5.669292,5.6693 z"
         inkscape:connector-curvature="0" />
    </g>
    <g
       id="g1087"
       inkscape:label="0"
       transform="translate(112.84127,-275.44988)">
      <path
         id="path1085"
         style="fill:none;stroke:#000000"
         d="m -56.220472,1208.5039 a 5.669291,5.669291 0 0 1 -5.669292,-5.6693 v -35.9055 a 5.669291,5.669291 0 0 1 5.669292,-5.6693 H 57.165354 a 5.669291,5.669291 0 0 1 5.669292,5.6693 v 35.9055 a 5.669291,5.669291 0 0 1 -5.669292,5.6693 z"
         inkscape:connector-curvature="0" />
    </g>
    <g
       id="g1091"
       inkscape:label="0"
       transform="translate(112.84127,-217.84105)">
      <path
         id="path1089"
         style="fill:none;stroke:#000000"
         d="m -56.220472,1208.5039 a 5.669291,5.669291 0 0 1 -5.669292,-5.6693 v -35.9055 a 5.669291,5.669291 0 0 1 5.669292,-5.6693 H 57.165354 a 5.669291,5.669291 0 0 1 5.669292,5.6693 v 35.9055 a 5.669291,5.669291 0 0 1 -5.669292,5.6693 z"
         inkscape:connector-curvature="0" />
    </g>
    <g
       transform="translate(250.69562,-274.60905)"
       inkscape:label="0"
       id="g1095">
      <path
         inkscape:connector-curvature="0"
         d="m -56.220472,1208.5039 a 5.669291,5.669291 0 0 1 -5.669292,-5.6693 v -35.9055 a 5.669291,5.669291 0 0 1 5.669292,-5.6693 H 57.165354 a 5.669291,5.669291 0 0 1 5.669292,5.6693 v 35.9055 a 5.669291,5.669291 0 0 1 -5.669292,5.6693 z"
         style="fill:none;stroke:#000000"
         id="path1093" />
    </g>
    <g
       transform="translate(250.69562,-217.00022)"
       inkscape:label="0"
       id="g1099">
      <path
         inkscape:connector-curvature="0"
         d="m -56.220472,1208.5039 a 5.669291,5.669291 0 0 1 -5.669292,-5.6693 v -35.9055 a 5.669291,5.669291 0 0 1 5.669292,-5.6693 H 57.165354 a 5.669291,5.669291 0 0 1 5.669292,5.6693 v 35.9055 a 5.669291,5.669291 0 0 1 -5.669292,5.6693 z"
         style="fill:none;stroke:#000000"
         id="path1097" />
    </g>
    <g
       transform="translate(385.26942,-103.17015)"
       inkscape:label="0"
       id="g1103">
      <path
         inkscape:connector-curvature="0"
         d="m -56.220472,1208.5039 a 5.669291,5.669291 0 0 1 -5.669292,-5.6693 v -35.9055 a 5.669291,5.669291 0 0 1 5.669292,-5.6693 H 57.165354 a 5.669291,5.669291 0 0 1 5.669292,5.6693 v 35.9055 a 5.669291,5.669291 0 0 1 -5.669292,5.6693 z"
         style="fill:none;stroke:#000000"
         id="path1101" />
    </g>
    <g
       id="g1107"
       inkscape:label="0"
       transform="translate(385.26942,-160.77898)">
      <path
         id="path1105"
         style="fill:none;stroke:#000000"
         d="m -56.220472,1208.5039 a 5.669291,5.669291 0 0 1 -5.669292,-5.6693 v -35.9055 a 5.669291,5.669291 0 0 1 5.669292,-5.6693 H 57.165354 a 5.669291,5.669291 0 0 1 5.669292,5.6693 v 35.9055 a 5.669291,5.669291 0 0 1 -5.669292,5.6693 z"
         inkscape:connector-curvature="0" />
    </g>
    <g
       id="g1111"
       inkscape:label="0"
       transform="translate(385.26942,-103.17015)">
      <path
         id="path1109"
         style="fill:none;stroke:#000000"
         d="m -56.220472,1208.5039 a 5.669291,5.669291 0 0 1 -5.669292,-5.6693 v -35.9055 a 5.669291,5.669291 0 0 1 5.669292,-5.6693 H 57.165354 a 5.669291,5.669291 0 0 1 5.669292,5.6693 v 35.9055 a 5.669291,5.669291 0 0 1 -5.669292,5.6693 z"
         inkscape:connector-curvature="0" />
    </g>
    <g
       transform="translate(523.12377,-159.93815)"
       inkscape:label="0"
       id="g1115">
      <path
         inkscape:connector-curvature="0"
         d="m -56.220472,1208.5039 a 5.669291,5.669291 0 0 1 -5.669292,-5.6693 v -35.9055 a 5.669291,5.669291 0 0 1 5.669292,-5.6693 H 57.165354 a 5.669291,5.669291 0 0 1 5.669292,5.6693 v 35.9055 a 5.669291,5.669291 0 0 1 -5.669292,5.6693 z"
         style="fill:none;stroke:#000000"
         id="path1113" />
    </g>
    <g
       transform="translate(523.12377,-102.32932)"
       inkscape:label="0"
       id="g1119">
      <path
         inkscape:connector-curvature="0"
         d="m -56.220472,1208.5039 a 5.669291,5.669291 0 0 1 -5.669292,-5.6693 v -35.9055 a 5.669291,5.669291 0 0 1 5.669292,-5.6693 H 57.165354 a 5.669291,5.669291 0 0 1 5.669292,5.6693 v 35.9055 a 5.669291,5.669291 0 0 1 -5.669292,5.6693 z"
         style="fill:none;stroke:#000000"
         id="path1117" />
    </g>
    <g
       transform="translate(384.42859,-273.44988)"
       inkscape:label="0"
       id="g1123">
      <path
         inkscape:connector-curvature="0"
         d="m -56.220472,1208.5039 a 5.669291,5.669291 0 0 1 -5.669292,-5.6693 v -35.9055 a 5.669291,5.669291 0 0 1 5.669292,-5.6693 H 57.165354 a 5.669291,5.669291 0 0 1 5.669292,5.6693 v 35.9055 a 5.669291,5.669291 0 0 1 -5.669292,5.6693 z"
         style="fill:none;stroke:#000000"
         id="path1121" />
    </g>
    <g
       transform="translate(384.42859,-215.84105)"
       inkscape:label="0"
       id="g1127">
      <path
         inkscape:connector-curvature="0"
         d="m -56.220472,1208.5039 a 5.669291,5.669291 0 0 1 -5.669292,-5.6693 v -35.9055 a 5.669291,5.669291 0 0 1 5.669292,-5.6693 H 57.165354 a 5.669291,5.669291 0 0 1 5.669292,5.6693 v 35.9055 a 5.669291,5.669291 0 0 1 -5.669292,5.6693 z"
         style="fill:none;stroke:#000000"
         id="path1125" />
    </g>
    <g
       id="g1131"
       inkscape:label="0"
       transform="translate(522.28294,-272.60905)">
      <path
         id="path1129"
         style="fill:none;stroke:#000000"
         d="m -56.220472,1208.5039 a 5.669291,5.669291 0 0 1 -5.669292,-5.6693 v -35.9055 a 5.669291,5.669291 0 0 1 5.669292,-5.6693 H 57.165354 a 5.669291,5.669291 0 0 1 5.669292,5.6693 v 35.9055 a 5.669291,5.669291 0 0 1 -5.669292,5.6693 z"
         inkscape:connector-curvature="0" />
    </g>
    <g
       id="g1135"
       inkscape:label="0"
       transform="translate(522.28294,-215.00022)">
      <path
         id="path1133"
         style="fill:none;stroke:#000000"
         d="m -56.220472,1208.5039 a 5.669291,5.669291 0 0 1 -5.669292,-5.6693 v -35.9055 a 5.669291,5.669291 0 0 1 5.669292,-5.6693 H 57.165354 a 5.669291,5.669291 0 0 1 5.669292,5.6693 v 35.9055 a 5.669291,5.669291 0 0 1 -5.669292,5.6693 z"
         inkscape:connector-curvature="0" />
    </g>
    <g
       transform="translate(112.84127,-331.78533)"
       inkscape:label="0"
       id="g1139">
      <path
         inkscape:connector-curvature="0"
         d="m -56.220472,1208.5039 a 5.669291,5.669291 0 0 1 -5.669292,-5.6693 v -35.9055 a 5.669291,5.669291 0 0 1 5.669292,-5.6693 H 57.165354 a 5.669291,5.669291 0 0 1 5.669292,5.6693 v 35.9055 a 5.669291,5.669291 0 0 1 -5.669292,5.6693 z"
         style="fill:none;stroke:#000000"
         id="path1137" />
    </g>
    <g
       id="g1143"
       inkscape:label="0"
       transform="translate(250.69562,-330.9445)">
      <path
         id="path1141"
         style="fill:none;stroke:#000000"
         d="m -56.220472,1208.5039 a 5.669291,5.669291 0 0 1 -5.669292,-5.6693 v -35.9055 a 5.669291,5.669291 0 0 1 5.669292,-5.6693 H 57.165354 a 5.669291,5.669291 0 0 1 5.669292,5.6693 v 35.9055 a 5.669291,5.669291 0 0 1 -5.669292,5.6693 z"
         inkscape:connector-curvature="0" />
    </g>
    <g
       id="g1147"
       inkscape:label="0"
       transform="translate(384.42859,-329.78533)">
      <path
         id="path1145"
         style="fill:none;stroke:#000000"
         d="m -56.220472,1208.5039 a 5.669291,5.669291 0 0 1 -5.669292,-5.6693 v -35.9055 a 5.669291,5.669291 0 0 1 5.669292,-5.6693 H 57.165354 a 5.669291,5.669291 0 0 1 5.669292,5.6693 v 35.9055 a 5.669291,5.669291 0 0 1 -5.669292,5.6693 z"
         inkscape:connector-curvature="0" />
    </g>
    <g
       transform="translate(522.28294,-328.9445)"
       inkscape:label="0"
       id="g1151">
      <path
         inkscape:connector-curvature="0"
         d="m -56.220472,1208.5039 a 5.669291,5.669291 0 0 1 -5.669292,-5.6693 v -35.9055 a 5.669291,5.669291 0 0 1 5.669292,-5.6693 H 57.165354 a 5.669291,5.669291 0 0 1 5.669292,5.6693 v 35.9055 a 5.669291,5.669291 0 0 1 -5.669292,5.6693 z"
         style="fill:none;stroke:#000000"
         id="path1149" />
    </g>
    <g
       id="g1155"
       inkscape:label="0"
       transform="translate(114.48155,-386.9616)">
      <path
         id="path1153"
         style="fill:none;stroke:#000000"
         d="m -56.220472,1208.5039 a 5.669291,5.669291 0 0 1 -5.669292,-5.6693 v -35.9055 a 5.669291,5.669291 0 0 1 5.669292,-5.6693 H 57.165354 a 5.669291,5.669291 0 0 1 5.669292,5.6693 v 35.9055 a 5.669291,5.669291 0 0 1 -5.669292,5.6693 z"
         inkscape:connector-curvature="0" />
    </g>
  </g>
</svg>
